<?xml version="1.0" encoding="UTF-8"?>
<svg xmlns="http://www.w3.org/2000/svg" width="300.000mm" height="268.000mm" viewBox="0 0 300.000 268.000">
<metadata>Through-cut operation sidecar only. Units: millimeters.</metadata>
<rect x="0" y="0" width="300.000" height="268.000" fill="none" stroke="none" />
<g transform="translate(0 268.000) scale(1 -1)">
<g id="through_cut" fill="none" stroke="#ff0000" stroke-width="0.12">
<path d="M 0.000,0.000 L 0.001,0.000"/>
<path d="M 300.000,268.000 L 299.999,268.000"/>
<path d="M 64.500,30.077 L 64.479,31.058 L 64.414,32.038 L 64.308,33.014 L 64.158,33.984 L 63.967,34.947 L 63.733,35.900 L 63.459,36.843 L 63.143,37.772 L 62.787,38.687 L 62.392,39.586 L 61.958,40.466 L 61.486,41.327 L 60.976,42.166 L 60.431,42.982 L 59.850,43.774 L 59.236,44.540 L 58.589,45.278 L 57.910,45.987 L 57.201,46.666 L 56.463,47.313 L 55.697,47.927 L 54.905,48.508 L 54.089,49.053 L 53.250,49.563 L 52.389,50.035 L 51.509,50.469 L 50.610,50.864 L 49.695,51.220 L 48.766,51.536 L 47.823,51.810 L 46.870,52.044 L 45.907,52.235 L 44.937,52.384 L 43.961,52.491 L 42.981,52.556 L 42.000,52.577 L 41.019,52.556 L 40.039,52.491 L 39.063,52.384 L 38.093,52.235 L 37.130,52.044 L 36.177,51.810 L 35.234,51.536 L 34.305,51.220 L 33.390,50.864 L 32.491,50.469 L 31.611,50.035 L 30.750,49.563 L 29.911,49.053 L 29.095,48.508 L 28.303,47.927 L 27.537,47.313 L 26.799,46.666 L 26.090,45.987 L 25.411,45.278 L 24.764,44.540 L 24.150,43.774 L 23.569,42.982 L 23.024,42.166 L 22.514,41.327 L 22.042,40.466 L 21.608,39.586 L 21.213,38.687 L 20.857,37.772 L 20.541,36.843 L 20.267,35.900 L 20.033,34.947 L 19.842,33.984 L 19.692,33.014 L 19.586,32.038 L 19.521,31.058 L 19.500,30.077 L 19.521,29.096 L 19.586,28.116 L 19.692,27.140 L 19.842,26.170 L 20.033,25.207 L 20.267,24.254 L 20.541,23.311 L 20.857,22.381 L 21.213,21.467 L 21.608,20.568 L 22.042,19.688 L 22.514,18.827 L 23.024,17.988 L 23.569,17.171 L 24.150,16.380 L 24.764,15.614 L 25.411,14.876 L 26.090,14.167 L 26.799,13.488 L 27.537,12.841 L 28.303,12.227 L 29.095,11.646 L 29.911,11.101 L 30.750,10.591 L 31.611,10.119 L 32.491,9.685 L 33.390,9.290 L 34.305,8.934 L 35.234,8.618 L 36.177,8.344 L 37.130,8.110 L 38.093,7.919 L 39.063,7.769 L 40.039,7.663 L 41.019,7.598 L 42.000,7.577 L 42.981,7.598 L 43.961,7.663 L 44.937,7.769 L 45.907,7.919 L 46.870,8.110 L 47.823,8.344 L 48.766,8.618 L 49.695,8.934 L 50.610,9.290 L 51.509,9.685 L 52.389,10.119 L 53.250,10.591 L 54.089,11.101 L 54.905,11.646 L 55.697,12.227 L 56.463,12.841 L 57.201,13.488 L 57.910,14.167 L 58.589,14.876 L 59.236,15.614 L 59.850,16.380 L 60.431,17.171 L 60.976,17.988 L 61.486,18.827 L 61.958,19.688 L 62.392,20.568 L 62.787,21.467 L 63.143,22.381 L 63.459,23.311 L 63.733,24.254 L 63.967,25.207 L 64.158,26.170 L 64.308,27.140 L 64.414,28.116 L 64.479,29.096 L 64.500,30.077 Z"/>
<path d="M 112.500,30.077 L 112.479,31.058 L 112.414,32.038 L 112.308,33.014 L 112.158,33.984 L 111.967,34.947 L 111.733,35.900 L 111.459,36.843 L 111.143,37.772 L 110.787,38.687 L 110.392,39.586 L 109.958,40.466 L 109.486,41.327 L 108.976,42.166 L 108.431,42.982 L 107.850,43.774 L 107.236,44.540 L 106.589,45.278 L 105.910,45.987 L 105.201,46.666 L 104.463,47.313 L 103.697,47.927 L 102.905,48.508 L 102.089,49.053 L 101.250,49.563 L 100.389,50.035 L 99.509,50.469 L 98.610,50.864 L 97.695,51.220 L 96.766,51.536 L 95.823,51.810 L 94.870,52.044 L 93.907,52.235 L 92.937,52.384 L 91.961,52.491 L 90.981,52.556 L 90.000,52.577 L 89.019,52.556 L 88.039,52.491 L 87.063,52.384 L 86.093,52.235 L 85.130,52.044 L 84.177,51.810 L 83.234,51.536 L 82.305,51.220 L 81.390,50.864 L 80.491,50.469 L 79.611,50.035 L 78.750,49.563 L 77.911,49.053 L 77.095,48.508 L 76.303,47.927 L 75.537,47.313 L 74.799,46.666 L 74.090,45.987 L 73.411,45.278 L 72.764,44.540 L 72.150,43.774 L 71.569,42.982 L 71.024,42.166 L 70.514,41.327 L 70.042,40.466 L 69.608,39.586 L 69.213,38.687 L 68.857,37.772 L 68.541,36.843 L 68.267,35.900 L 68.033,34.947 L 67.842,33.984 L 67.692,33.014 L 67.586,32.038 L 67.521,31.058 L 67.500,30.077 L 67.521,29.096 L 67.586,28.116 L 67.692,27.140 L 67.842,26.170 L 68.033,25.207 L 68.267,24.254 L 68.541,23.311 L 68.857,22.381 L 69.213,21.467 L 69.608,20.568 L 70.042,19.688 L 70.514,18.827 L 71.024,17.988 L 71.569,17.171 L 72.150,16.380 L 72.764,15.614 L 73.411,14.876 L 74.090,14.167 L 74.799,13.488 L 75.537,12.841 L 76.303,12.227 L 77.095,11.646 L 77.911,11.101 L 78.750,10.591 L 79.611,10.119 L 80.491,9.685 L 81.390,9.290 L 82.305,8.934 L 83.234,8.618 L 84.177,8.344 L 85.130,8.110 L 86.093,7.919 L 87.063,7.769 L 88.039,7.663 L 89.019,7.598 L 90.000,7.577 L 90.981,7.598 L 91.961,7.663 L 92.937,7.769 L 93.907,7.919 L 94.870,8.110 L 95.823,8.344 L 96.766,8.618 L 97.695,8.934 L 98.610,9.290 L 99.509,9.685 L 100.389,10.119 L 101.250,10.591 L 102.089,11.101 L 102.905,11.646 L 103.697,12.227 L 104.463,12.841 L 105.201,13.488 L 105.910,14.167 L 106.589,14.876 L 107.236,15.614 L 107.850,16.380 L 108.431,17.171 L 108.976,17.988 L 109.486,18.827 L 109.958,19.688 L 110.392,20.568 L 110.787,21.467 L 111.143,22.381 L 111.459,23.311 L 111.733,24.254 L 111.967,25.207 L 112.158,26.170 L 112.308,27.140 L 112.414,28.116 L 112.479,29.096 L 112.500,30.077 Z"/>
<path d="M 160.500,30.077 L 160.479,31.058 L 160.414,32.038 L 160.308,33.014 L 160.158,33.984 L 159.967,34.947 L 159.733,35.900 L 159.459,36.843 L 159.143,37.772 L 158.787,38.687 L 158.392,39.586 L 157.958,40.466 L 157.486,41.327 L 156.976,42.166 L 156.431,42.982 L 155.850,43.774 L 155.236,44.540 L 154.589,45.278 L 153.910,45.987 L 153.201,46.666 L 152.463,47.313 L 151.697,47.927 L 150.905,48.508 L 150.089,49.053 L 149.250,49.563 L 148.389,50.035 L 147.509,50.469 L 146.610,50.864 L 145.695,51.220 L 144.766,51.536 L 143.823,51.810 L 142.870,52.044 L 141.907,52.235 L 140.937,52.384 L 139.961,52.491 L 138.981,52.556 L 138.000,52.577 L 137.019,52.556 L 136.039,52.491 L 135.063,52.384 L 134.093,52.235 L 133.130,52.044 L 132.177,51.810 L 131.234,51.536 L 130.305,51.220 L 129.390,50.864 L 128.491,50.469 L 127.611,50.035 L 126.750,49.563 L 125.911,49.053 L 125.095,48.508 L 124.303,47.927 L 123.537,47.313 L 122.799,46.666 L 122.090,45.987 L 121.411,45.278 L 120.764,44.540 L 120.150,43.774 L 119.569,42.982 L 119.024,42.166 L 118.514,41.327 L 118.042,40.466 L 117.608,39.586 L 117.213,38.687 L 116.857,37.772 L 116.541,36.843 L 116.267,35.900 L 116.033,34.947 L 115.842,33.984 L 115.692,33.014 L 115.586,32.038 L 115.521,31.058 L 115.500,30.077 L 115.521,29.096 L 115.586,28.116 L 115.692,27.140 L 115.842,26.170 L 116.033,25.207 L 116.267,24.254 L 116.541,23.311 L 116.857,22.381 L 117.213,21.467 L 117.608,20.568 L 118.042,19.688 L 118.514,18.827 L 119.024,17.988 L 119.569,17.171 L 120.150,16.380 L 120.764,15.614 L 121.411,14.876 L 122.090,14.167 L 122.799,13.488 L 123.537,12.841 L 124.303,12.227 L 125.095,11.646 L 125.911,11.101 L 126.750,10.591 L 127.611,10.119 L 128.491,9.685 L 129.390,9.290 L 130.305,8.934 L 131.234,8.618 L 132.177,8.344 L 133.130,8.110 L 134.093,7.919 L 135.063,7.769 L 136.039,7.663 L 137.019,7.598 L 138.000,7.577 L 138.981,7.598 L 139.961,7.663 L 140.937,7.769 L 141.907,7.919 L 142.870,8.110 L 143.823,8.344 L 144.766,8.618 L 145.695,8.934 L 146.610,9.290 L 147.509,9.685 L 148.389,10.119 L 149.250,10.591 L 150.089,11.101 L 150.905,11.646 L 151.697,12.227 L 152.463,12.841 L 153.201,13.488 L 153.910,14.167 L 154.589,14.876 L 155.236,15.614 L 155.850,16.380 L 156.431,17.171 L 156.976,17.988 L 157.486,18.827 L 157.958,19.688 L 158.392,20.568 L 158.787,21.467 L 159.143,22.381 L 159.459,23.311 L 159.733,24.254 L 159.967,25.207 L 160.158,26.170 L 160.308,27.140 L 160.414,28.116 L 160.479,29.096 L 160.500,30.077 Z"/>
<path d="M 208.500,30.077 L 208.479,31.058 L 208.414,32.038 L 208.308,33.014 L 208.158,33.984 L 207.967,34.947 L 207.733,35.900 L 207.459,36.843 L 207.143,37.772 L 206.787,38.687 L 206.392,39.586 L 205.958,40.466 L 205.486,41.327 L 204.976,42.166 L 204.431,42.982 L 203.850,43.774 L 203.236,44.540 L 202.589,45.278 L 201.910,45.987 L 201.201,46.666 L 200.463,47.313 L 199.697,47.927 L 198.905,48.508 L 198.089,49.053 L 197.250,49.563 L 196.389,50.035 L 195.509,50.469 L 194.610,50.864 L 193.695,51.220 L 192.766,51.536 L 191.823,51.810 L 190.870,52.044 L 189.907,52.235 L 188.937,52.384 L 187.961,52.491 L 186.981,52.556 L 186.000,52.577 L 185.019,52.556 L 184.039,52.491 L 183.063,52.384 L 182.093,52.235 L 181.130,52.044 L 180.177,51.810 L 179.234,51.536 L 178.305,51.220 L 177.390,50.864 L 176.491,50.469 L 175.611,50.035 L 174.750,49.563 L 173.911,49.053 L 173.095,48.508 L 172.303,47.927 L 171.537,47.313 L 170.799,46.666 L 170.090,45.987 L 169.411,45.278 L 168.764,44.540 L 168.150,43.774 L 167.569,42.982 L 167.024,42.166 L 166.514,41.327 L 166.042,40.466 L 165.608,39.586 L 165.213,38.687 L 164.857,37.772 L 164.541,36.843 L 164.267,35.900 L 164.033,34.947 L 163.842,33.984 L 163.692,33.014 L 163.586,32.038 L 163.521,31.058 L 163.500,30.077 L 163.521,29.096 L 163.586,28.116 L 163.692,27.140 L 163.842,26.170 L 164.033,25.207 L 164.267,24.254 L 164.541,23.311 L 164.857,22.381 L 165.213,21.467 L 165.608,20.568 L 166.042,19.688 L 166.514,18.827 L 167.024,17.988 L 167.569,17.171 L 168.150,16.380 L 168.764,15.614 L 169.411,14.876 L 170.090,14.167 L 170.799,13.488 L 171.537,12.841 L 172.303,12.227 L 173.095,11.646 L 173.911,11.101 L 174.750,10.591 L 175.611,10.119 L 176.491,9.685 L 177.390,9.290 L 178.305,8.934 L 179.234,8.618 L 180.177,8.344 L 181.130,8.110 L 182.093,7.919 L 183.063,7.769 L 184.039,7.663 L 185.019,7.598 L 186.000,7.577 L 186.981,7.598 L 187.961,7.663 L 188.937,7.769 L 189.907,7.919 L 190.870,8.110 L 191.823,8.344 L 192.766,8.618 L 193.695,8.934 L 194.610,9.290 L 195.509,9.685 L 196.389,10.119 L 197.250,10.591 L 198.089,11.101 L 198.905,11.646 L 199.697,12.227 L 200.463,12.841 L 201.201,13.488 L 201.910,14.167 L 202.589,14.876 L 203.236,15.614 L 203.850,16.380 L 204.431,17.171 L 204.976,17.988 L 205.486,18.827 L 205.958,19.688 L 206.392,20.568 L 206.787,21.467 L 207.143,22.381 L 207.459,23.311 L 207.733,24.254 L 207.967,25.207 L 208.158,26.170 L 208.308,27.140 L 208.414,28.116 L 208.479,29.096 L 208.500,30.077 Z"/>
<path d="M 256.500,30.077 L 256.479,31.058 L 256.414,32.038 L 256.308,33.014 L 256.158,33.984 L 255.967,34.947 L 255.733,35.900 L 255.459,36.843 L 255.143,37.772 L 254.787,38.687 L 254.392,39.586 L 253.958,40.466 L 253.486,41.327 L 252.976,42.166 L 252.431,42.982 L 251.850,43.774 L 251.236,44.540 L 250.589,45.278 L 249.910,45.987 L 249.201,46.666 L 248.463,47.313 L 247.697,47.927 L 246.905,48.508 L 246.089,49.053 L 245.250,49.563 L 244.389,50.035 L 243.509,50.469 L 242.610,50.864 L 241.695,51.220 L 240.766,51.536 L 239.823,51.810 L 238.870,52.044 L 237.907,52.235 L 236.937,52.384 L 235.961,52.491 L 234.981,52.556 L 234.000,52.577 L 233.019,52.556 L 232.039,52.491 L 231.063,52.384 L 230.093,52.235 L 229.130,52.044 L 228.177,51.810 L 227.234,51.536 L 226.305,51.220 L 225.390,50.864 L 224.491,50.469 L 223.611,50.035 L 222.750,49.563 L 221.911,49.053 L 221.095,48.508 L 220.303,47.927 L 219.537,47.313 L 218.799,46.666 L 218.090,45.987 L 217.411,45.278 L 216.764,44.540 L 216.150,43.774 L 215.569,42.982 L 215.024,42.166 L 214.514,41.327 L 214.042,40.466 L 213.608,39.586 L 213.213,38.687 L 212.857,37.772 L 212.541,36.843 L 212.267,35.900 L 212.033,34.947 L 211.842,33.984 L 211.692,33.014 L 211.586,32.038 L 211.521,31.058 L 211.500,30.077 L 211.521,29.096 L 211.586,28.116 L 211.692,27.140 L 211.842,26.170 L 212.033,25.207 L 212.267,24.254 L 212.541,23.311 L 212.857,22.381 L 213.213,21.467 L 213.608,20.568 L 214.042,19.688 L 214.514,18.827 L 215.024,17.988 L 215.569,17.171 L 216.150,16.380 L 216.764,15.614 L 217.411,14.876 L 218.090,14.167 L 218.799,13.488 L 219.537,12.841 L 220.303,12.227 L 221.095,11.646 L 221.911,11.101 L 222.750,10.591 L 223.611,10.119 L 224.491,9.685 L 225.390,9.290 L 226.305,8.934 L 227.234,8.618 L 228.177,8.344 L 229.130,8.110 L 230.093,7.919 L 231.063,7.769 L 232.039,7.663 L 233.019,7.598 L 234.000,7.577 L 234.981,7.598 L 235.961,7.663 L 236.937,7.769 L 237.907,7.919 L 238.870,8.110 L 239.823,8.344 L 240.766,8.618 L 241.695,8.934 L 242.610,9.290 L 243.509,9.685 L 244.389,10.119 L 245.250,10.591 L 246.089,11.101 L 246.905,11.646 L 247.697,12.227 L 248.463,12.841 L 249.201,13.488 L 249.910,14.167 L 250.589,14.876 L 251.236,15.614 L 251.850,16.380 L 252.431,17.171 L 252.976,17.988 L 253.486,18.827 L 253.958,19.688 L 254.392,20.568 L 254.787,21.467 L 255.143,22.381 L 255.459,23.311 L 255.733,24.254 L 255.967,25.207 L 256.158,26.170 L 256.308,27.140 L 256.414,28.116 L 256.479,29.096 L 256.500,30.077 Z"/>
<path d="M 88.500,71.646 L 88.479,72.628 L 88.414,73.607 L 88.308,74.583 L 88.158,75.553 L 87.967,76.516 L 87.733,77.470 L 87.459,78.412 L 87.143,79.342 L 86.787,80.257 L 86.392,81.155 L 85.958,82.036 L 85.486,82.896 L 84.976,83.735 L 84.431,84.552 L 83.850,85.343 L 83.236,86.109 L 82.589,86.847 L 81.910,87.556 L 81.201,88.235 L 80.463,88.882 L 79.697,89.497 L 78.905,90.077 L 78.089,90.622 L 77.250,91.132 L 76.389,91.604 L 75.509,92.038 L 74.610,92.433 L 73.695,92.789 L 72.766,93.105 L 71.823,93.380 L 70.870,93.613 L 69.907,93.804 L 68.937,93.954 L 67.961,94.061 L 66.981,94.125 L 66.000,94.146 L 65.019,94.125 L 64.039,94.061 L 63.063,93.954 L 62.093,93.804 L 61.130,93.613 L 60.177,93.380 L 59.234,93.105 L 58.305,92.789 L 57.390,92.433 L 56.491,92.038 L 55.611,91.604 L 54.750,91.132 L 53.911,90.622 L 53.095,90.077 L 52.303,89.497 L 51.537,88.882 L 50.799,88.235 L 50.090,87.556 L 49.411,86.847 L 48.764,86.109 L 48.150,85.343 L 47.569,84.552 L 47.024,83.735 L 46.514,82.896 L 46.042,82.036 L 45.608,81.155 L 45.213,80.257 L 44.857,79.342 L 44.541,78.412 L 44.267,77.470 L 44.033,76.516 L 43.842,75.553 L 43.692,74.583 L 43.586,73.607 L 43.521,72.628 L 43.500,71.646 L 43.521,70.665 L 43.586,69.685 L 43.692,68.709 L 43.842,67.739 L 44.033,66.776 L 44.267,65.823 L 44.541,64.880 L 44.857,63.951 L 45.213,63.036 L 45.608,62.137 L 46.042,61.257 L 46.514,60.396 L 47.024,59.557 L 47.569,58.741 L 48.150,57.949 L 48.764,57.183 L 49.411,56.445 L 50.090,55.736 L 50.799,55.057 L 51.537,54.410 L 52.303,53.796 L 53.095,53.215 L 53.911,52.670 L 54.750,52.161 L 55.611,51.688 L 56.491,51.254 L 57.390,50.859 L 58.305,50.503 L 59.234,50.188 L 60.177,49.913 L 61.130,49.680 L 62.093,49.488 L 63.063,49.339 L 64.039,49.232 L 65.019,49.168 L 66.000,49.146 L 66.981,49.168 L 67.961,49.232 L 68.937,49.339 L 69.907,49.488 L 70.870,49.680 L 71.823,49.913 L 72.766,50.188 L 73.695,50.503 L 74.610,50.859 L 75.509,51.254 L 76.389,51.688 L 77.250,52.161 L 78.089,52.670 L 78.905,53.215 L 79.697,53.796 L 80.463,54.410 L 81.201,55.057 L 81.910,55.736 L 82.589,56.445 L 83.236,57.183 L 83.850,57.949 L 84.431,58.741 L 84.976,59.557 L 85.486,60.396 L 85.958,61.257 L 86.392,62.137 L 86.787,63.036 L 87.143,63.951 L 87.459,64.880 L 87.733,65.823 L 87.967,66.776 L 88.158,67.739 L 88.308,68.709 L 88.414,69.685 L 88.479,70.665 L 88.500,71.646 Z"/>
<path d="M 136.500,71.646 L 136.479,72.628 L 136.414,73.607 L 136.308,74.583 L 136.158,75.553 L 135.967,76.516 L 135.733,77.470 L 135.459,78.412 L 135.143,79.342 L 134.787,80.257 L 134.392,81.155 L 133.958,82.036 L 133.486,82.896 L 132.976,83.735 L 132.431,84.552 L 131.850,85.343 L 131.236,86.109 L 130.589,86.847 L 129.910,87.556 L 129.201,88.235 L 128.463,88.882 L 127.697,89.497 L 126.905,90.077 L 126.089,90.622 L 125.250,91.132 L 124.389,91.604 L 123.509,92.038 L 122.610,92.433 L 121.695,92.789 L 120.766,93.105 L 119.823,93.380 L 118.870,93.613 L 117.907,93.804 L 116.937,93.954 L 115.961,94.061 L 114.981,94.125 L 114.000,94.146 L 113.019,94.125 L 112.039,94.061 L 111.063,93.954 L 110.093,93.804 L 109.130,93.613 L 108.177,93.380 L 107.234,93.105 L 106.305,92.789 L 105.390,92.433 L 104.491,92.038 L 103.611,91.604 L 102.750,91.132 L 101.911,90.622 L 101.095,90.077 L 100.303,89.497 L 99.537,88.882 L 98.799,88.235 L 98.090,87.556 L 97.411,86.847 L 96.764,86.109 L 96.150,85.343 L 95.569,84.552 L 95.024,83.735 L 94.514,82.896 L 94.042,82.036 L 93.608,81.155 L 93.213,80.257 L 92.857,79.342 L 92.541,78.412 L 92.267,77.470 L 92.033,76.516 L 91.842,75.553 L 91.692,74.583 L 91.586,73.607 L 91.521,72.628 L 91.500,71.646 L 91.521,70.665 L 91.586,69.685 L 91.692,68.709 L 91.842,67.739 L 92.033,66.776 L 92.267,65.823 L 92.541,64.880 L 92.857,63.951 L 93.213,63.036 L 93.608,62.137 L 94.042,61.257 L 94.514,60.396 L 95.024,59.557 L 95.569,58.741 L 96.150,57.949 L 96.764,57.183 L 97.411,56.445 L 98.090,55.736 L 98.799,55.057 L 99.537,54.410 L 100.303,53.796 L 101.095,53.215 L 101.911,52.670 L 102.750,52.161 L 103.611,51.688 L 104.491,51.254 L 105.390,50.859 L 106.305,50.503 L 107.234,50.188 L 108.177,49.913 L 109.130,49.680 L 110.093,49.488 L 111.063,49.339 L 112.039,49.232 L 113.019,49.168 L 114.000,49.146 L 114.981,49.168 L 115.961,49.232 L 116.937,49.339 L 117.907,49.488 L 118.870,49.680 L 119.823,49.913 L 120.766,50.188 L 121.695,50.503 L 122.610,50.859 L 123.509,51.254 L 124.389,51.688 L 125.250,52.161 L 126.089,52.670 L 126.905,53.215 L 127.697,53.796 L 128.463,54.410 L 129.201,55.057 L 129.910,55.736 L 130.589,56.445 L 131.236,57.183 L 131.850,57.949 L 132.431,58.741 L 132.976,59.557 L 133.486,60.396 L 133.958,61.257 L 134.392,62.137 L 134.787,63.036 L 135.143,63.951 L 135.459,64.880 L 135.733,65.823 L 135.967,66.776 L 136.158,67.739 L 136.308,68.709 L 136.414,69.685 L 136.479,70.665 L 136.500,71.646 Z"/>
<path d="M 184.500,71.646 L 184.479,72.628 L 184.414,73.607 L 184.308,74.583 L 184.158,75.553 L 183.967,76.516 L 183.733,77.470 L 183.459,78.412 L 183.143,79.342 L 182.787,80.257 L 182.392,81.155 L 181.958,82.036 L 181.486,82.896 L 180.976,83.735 L 180.431,84.552 L 179.850,85.343 L 179.236,86.109 L 178.589,86.847 L 177.910,87.556 L 177.201,88.235 L 176.463,88.882 L 175.697,89.497 L 174.905,90.077 L 174.089,90.622 L 173.250,91.132 L 172.389,91.604 L 171.509,92.038 L 170.610,92.433 L 169.695,92.789 L 168.766,93.105 L 167.823,93.380 L 166.870,93.613 L 165.907,93.804 L 164.937,93.954 L 163.961,94.061 L 162.981,94.125 L 162.000,94.146 L 161.019,94.125 L 160.039,94.061 L 159.063,93.954 L 158.093,93.804 L 157.130,93.613 L 156.177,93.380 L 155.234,93.105 L 154.305,92.789 L 153.390,92.433 L 152.491,92.038 L 151.611,91.604 L 150.750,91.132 L 149.911,90.622 L 149.095,90.077 L 148.303,89.497 L 147.537,88.882 L 146.799,88.235 L 146.090,87.556 L 145.411,86.847 L 144.764,86.109 L 144.150,85.343 L 143.569,84.552 L 143.024,83.735 L 142.514,82.896 L 142.042,82.036 L 141.608,81.155 L 141.213,80.257 L 140.857,79.342 L 140.541,78.412 L 140.267,77.470 L 140.033,76.516 L 139.842,75.553 L 139.692,74.583 L 139.586,73.607 L 139.521,72.628 L 139.500,71.646 L 139.521,70.665 L 139.586,69.685 L 139.692,68.709 L 139.842,67.739 L 140.033,66.776 L 140.267,65.823 L 140.541,64.880 L 140.857,63.951 L 141.213,63.036 L 141.608,62.137 L 142.042,61.257 L 142.514,60.396 L 143.024,59.557 L 143.569,58.741 L 144.150,57.949 L 144.764,57.183 L 145.411,56.445 L 146.090,55.736 L 146.799,55.057 L 147.537,54.410 L 148.303,53.796 L 149.095,53.215 L 149.911,52.670 L 150.750,52.161 L 151.611,51.688 L 152.491,51.254 L 153.390,50.859 L 154.305,50.503 L 155.234,50.188 L 156.177,49.913 L 157.130,49.680 L 158.093,49.488 L 159.063,49.339 L 160.039,49.232 L 161.019,49.168 L 162.000,49.146 L 162.981,49.168 L 163.961,49.232 L 164.937,49.339 L 165.907,49.488 L 166.870,49.680 L 167.823,49.913 L 168.766,50.188 L 169.695,50.503 L 170.610,50.859 L 171.509,51.254 L 172.389,51.688 L 173.250,52.161 L 174.089,52.670 L 174.905,53.215 L 175.697,53.796 L 176.463,54.410 L 177.201,55.057 L 177.910,55.736 L 178.589,56.445 L 179.236,57.183 L 179.850,57.949 L 180.431,58.741 L 180.976,59.557 L 181.486,60.396 L 181.958,61.257 L 182.392,62.137 L 182.787,63.036 L 183.143,63.951 L 183.459,64.880 L 183.733,65.823 L 183.967,66.776 L 184.158,67.739 L 184.308,68.709 L 184.414,69.685 L 184.479,70.665 L 184.500,71.646 Z"/>
<path d="M 232.500,71.646 L 232.479,72.628 L 232.414,73.607 L 232.308,74.583 L 232.158,75.553 L 231.967,76.516 L 231.733,77.470 L 231.459,78.412 L 231.143,79.342 L 230.787,80.257 L 230.392,81.155 L 229.958,82.036 L 229.486,82.896 L 228.976,83.735 L 228.431,84.552 L 227.850,85.343 L 227.236,86.109 L 226.589,86.847 L 225.910,87.556 L 225.201,88.235 L 224.463,88.882 L 223.697,89.497 L 222.905,90.077 L 222.089,90.622 L 221.250,91.132 L 220.389,91.604 L 219.509,92.038 L 218.610,92.433 L 217.695,92.789 L 216.766,93.105 L 215.823,93.380 L 214.870,93.613 L 213.907,93.804 L 212.937,93.954 L 211.961,94.061 L 210.981,94.125 L 210.000,94.146 L 209.019,94.125 L 208.039,94.061 L 207.063,93.954 L 206.093,93.804 L 205.130,93.613 L 204.177,93.380 L 203.234,93.105 L 202.305,92.789 L 201.390,92.433 L 200.491,92.038 L 199.611,91.604 L 198.750,91.132 L 197.911,90.622 L 197.095,90.077 L 196.303,89.497 L 195.537,88.882 L 194.799,88.235 L 194.090,87.556 L 193.411,86.847 L 192.764,86.109 L 192.150,85.343 L 191.569,84.552 L 191.024,83.735 L 190.514,82.896 L 190.042,82.036 L 189.608,81.155 L 189.213,80.257 L 188.857,79.342 L 188.541,78.412 L 188.267,77.470 L 188.033,76.516 L 187.842,75.553 L 187.692,74.583 L 187.586,73.607 L 187.521,72.628 L 187.500,71.646 L 187.521,70.665 L 187.586,69.685 L 187.692,68.709 L 187.842,67.739 L 188.033,66.776 L 188.267,65.823 L 188.541,64.880 L 188.857,63.951 L 189.213,63.036 L 189.608,62.137 L 190.042,61.257 L 190.514,60.396 L 191.024,59.557 L 191.569,58.741 L 192.150,57.949 L 192.764,57.183 L 193.411,56.445 L 194.090,55.736 L 194.799,55.057 L 195.537,54.410 L 196.303,53.796 L 197.095,53.215 L 197.911,52.670 L 198.750,52.161 L 199.611,51.688 L 200.491,51.254 L 201.390,50.859 L 202.305,50.503 L 203.234,50.188 L 204.177,49.913 L 205.130,49.680 L 206.093,49.488 L 207.063,49.339 L 208.039,49.232 L 209.019,49.168 L 210.000,49.146 L 210.981,49.168 L 211.961,49.232 L 212.937,49.339 L 213.907,49.488 L 214.870,49.680 L 215.823,49.913 L 216.766,50.188 L 217.695,50.503 L 218.610,50.859 L 219.509,51.254 L 220.389,51.688 L 221.250,52.161 L 222.089,52.670 L 222.905,53.215 L 223.697,53.796 L 224.463,54.410 L 225.201,55.057 L 225.910,55.736 L 226.589,56.445 L 227.236,57.183 L 227.850,57.949 L 228.431,58.741 L 228.976,59.557 L 229.486,60.396 L 229.958,61.257 L 230.392,62.137 L 230.787,63.036 L 231.143,63.951 L 231.459,64.880 L 231.733,65.823 L 231.967,66.776 L 232.158,67.739 L 232.308,68.709 L 232.414,69.685 L 232.479,70.665 L 232.500,71.646 Z"/>
<path d="M 280.500,71.646 L 280.479,72.628 L 280.414,73.607 L 280.308,74.583 L 280.158,75.553 L 279.967,76.516 L 279.733,77.470 L 279.459,78.412 L 279.143,79.342 L 278.787,80.257 L 278.392,81.155 L 277.958,82.036 L 277.486,82.896 L 276.976,83.735 L 276.431,84.552 L 275.850,85.343 L 275.236,86.109 L 274.589,86.847 L 273.910,87.556 L 273.201,88.235 L 272.463,88.882 L 271.697,89.497 L 270.905,90.077 L 270.089,90.622 L 269.250,91.132 L 268.389,91.604 L 267.509,92.038 L 266.610,92.433 L 265.695,92.789 L 264.766,93.105 L 263.823,93.380 L 262.870,93.613 L 261.907,93.804 L 260.937,93.954 L 259.961,94.061 L 258.981,94.125 L 258.000,94.146 L 257.019,94.125 L 256.039,94.061 L 255.063,93.954 L 254.093,93.804 L 253.130,93.613 L 252.177,93.380 L 251.234,93.105 L 250.305,92.789 L 249.390,92.433 L 248.491,92.038 L 247.611,91.604 L 246.750,91.132 L 245.911,90.622 L 245.095,90.077 L 244.303,89.497 L 243.537,88.882 L 242.799,88.235 L 242.090,87.556 L 241.411,86.847 L 240.764,86.109 L 240.150,85.343 L 239.569,84.552 L 239.024,83.735 L 238.514,82.896 L 238.042,82.036 L 237.608,81.155 L 237.213,80.257 L 236.857,79.342 L 236.541,78.412 L 236.267,77.470 L 236.033,76.516 L 235.842,75.553 L 235.692,74.583 L 235.586,73.607 L 235.521,72.628 L 235.500,71.646 L 235.521,70.665 L 235.586,69.685 L 235.692,68.709 L 235.842,67.739 L 236.033,66.776 L 236.267,65.823 L 236.541,64.880 L 236.857,63.951 L 237.213,63.036 L 237.608,62.137 L 238.042,61.257 L 238.514,60.396 L 239.024,59.557 L 239.569,58.741 L 240.150,57.949 L 240.764,57.183 L 241.411,56.445 L 242.090,55.736 L 242.799,55.057 L 243.537,54.410 L 244.303,53.796 L 245.095,53.215 L 245.911,52.670 L 246.750,52.161 L 247.611,51.688 L 248.491,51.254 L 249.390,50.859 L 250.305,50.503 L 251.234,50.188 L 252.177,49.913 L 253.130,49.680 L 254.093,49.488 L 255.063,49.339 L 256.039,49.232 L 257.019,49.168 L 258.000,49.146 L 258.981,49.168 L 259.961,49.232 L 260.937,49.339 L 261.907,49.488 L 262.870,49.680 L 263.823,49.913 L 264.766,50.188 L 265.695,50.503 L 266.610,50.859 L 267.509,51.254 L 268.389,51.688 L 269.250,52.161 L 270.089,52.670 L 270.905,53.215 L 271.697,53.796 L 272.463,54.410 L 273.201,55.057 L 273.910,55.736 L 274.589,56.445 L 275.236,57.183 L 275.850,57.949 L 276.431,58.741 L 276.976,59.557 L 277.486,60.396 L 277.958,61.257 L 278.392,62.137 L 278.787,63.036 L 279.143,63.951 L 279.459,64.880 L 279.733,65.823 L 279.967,66.776 L 280.158,67.739 L 280.308,68.709 L 280.414,69.685 L 280.479,70.665 L 280.500,71.646 Z"/>
<path d="M 64.500,113.215 L 64.479,114.197 L 64.414,115.176 L 64.308,116.152 L 64.158,117.122 L 63.967,118.085 L 63.733,119.039 L 63.459,119.981 L 63.143,120.911 L 62.787,121.826 L 62.392,122.724 L 61.958,123.605 L 61.486,124.465 L 60.976,125.305 L 60.431,126.121 L 59.850,126.913 L 59.236,127.678 L 58.589,128.416 L 57.910,129.125 L 57.201,129.804 L 56.463,130.451 L 55.697,131.066 L 54.905,131.646 L 54.089,132.192 L 53.250,132.701 L 52.389,133.173 L 51.509,133.607 L 50.610,134.003 L 49.695,134.358 L 48.766,134.674 L 47.823,134.949 L 46.870,135.182 L 45.907,135.374 L 44.937,135.523 L 43.961,135.630 L 42.981,135.694 L 42.000,135.715 L 41.019,135.694 L 40.039,135.630 L 39.063,135.523 L 38.093,135.374 L 37.130,135.182 L 36.177,134.949 L 35.234,134.674 L 34.305,134.358 L 33.390,134.003 L 32.491,133.607 L 31.611,133.173 L 30.750,132.701 L 29.911,132.192 L 29.095,131.646 L 28.303,131.066 L 27.537,130.451 L 26.799,129.804 L 26.090,129.125 L 25.411,128.416 L 24.764,127.678 L 24.150,126.913 L 23.569,126.121 L 23.024,125.305 L 22.514,124.465 L 22.042,123.605 L 21.608,122.724 L 21.213,121.826 L 20.857,120.911 L 20.541,119.981 L 20.267,119.039 L 20.033,118.085 L 19.842,117.122 L 19.692,116.152 L 19.586,115.176 L 19.521,114.197 L 19.500,113.215 L 19.521,112.234 L 19.586,111.254 L 19.692,110.279 L 19.842,109.308 L 20.033,108.345 L 20.267,107.392 L 20.541,106.450 L 20.857,105.520 L 21.213,104.605 L 21.608,103.706 L 22.042,102.826 L 22.514,101.965 L 23.024,101.126 L 23.569,100.310 L 24.150,99.518 L 24.764,98.753 L 25.411,98.015 L 26.090,97.305 L 26.799,96.627 L 27.537,95.979 L 28.303,95.365 L 29.095,94.784 L 29.911,94.239 L 30.750,93.730 L 31.611,93.258 L 32.491,92.823 L 33.390,92.428 L 34.305,92.072 L 35.234,91.757 L 36.177,91.482 L 37.130,91.249 L 38.093,91.057 L 39.063,90.908 L 40.039,90.801 L 41.019,90.737 L 42.000,90.715 L 42.981,90.737 L 43.961,90.801 L 44.937,90.908 L 45.907,91.057 L 46.870,91.249 L 47.823,91.482 L 48.766,91.757 L 49.695,92.072 L 50.610,92.428 L 51.509,92.823 L 52.389,93.258 L 53.250,93.730 L 54.089,94.239 L 54.905,94.784 L 55.697,95.365 L 56.463,95.979 L 57.201,96.627 L 57.910,97.305 L 58.589,98.015 L 59.236,98.753 L 59.850,99.518 L 60.431,100.310 L 60.976,101.126 L 61.486,101.965 L 61.958,102.826 L 62.392,103.706 L 62.787,104.605 L 63.143,105.520 L 63.459,106.450 L 63.733,107.392 L 63.967,108.345 L 64.158,109.308 L 64.308,110.279 L 64.414,111.254 L 64.479,112.234 L 64.500,113.215 Z"/>
<path d="M 112.500,113.215 L 112.479,114.197 L 112.414,115.176 L 112.308,116.152 L 112.158,117.122 L 111.967,118.085 L 111.733,119.039 L 111.459,119.981 L 111.143,120.911 L 110.787,121.826 L 110.392,122.724 L 109.958,123.605 L 109.486,124.465 L 108.976,125.305 L 108.431,126.121 L 107.850,126.913 L 107.236,127.678 L 106.589,128.416 L 105.910,129.125 L 105.201,129.804 L 104.463,130.451 L 103.697,131.066 L 102.905,131.646 L 102.089,132.192 L 101.250,132.701 L 100.389,133.173 L 99.509,133.607 L 98.610,134.003 L 97.695,134.358 L 96.766,134.674 L 95.823,134.949 L 94.870,135.182 L 93.907,135.374 L 92.937,135.523 L 91.961,135.630 L 90.981,135.694 L 90.000,135.715 L 89.019,135.694 L 88.039,135.630 L 87.063,135.523 L 86.093,135.374 L 85.130,135.182 L 84.177,134.949 L 83.234,134.674 L 82.305,134.358 L 81.390,134.003 L 80.491,133.607 L 79.611,133.173 L 78.750,132.701 L 77.911,132.192 L 77.095,131.646 L 76.303,131.066 L 75.537,130.451 L 74.799,129.804 L 74.090,129.125 L 73.411,128.416 L 72.764,127.678 L 72.150,126.913 L 71.569,126.121 L 71.024,125.305 L 70.514,124.465 L 70.042,123.605 L 69.608,122.724 L 69.213,121.826 L 68.857,120.911 L 68.541,119.981 L 68.267,119.039 L 68.033,118.085 L 67.842,117.122 L 67.692,116.152 L 67.586,115.176 L 67.521,114.197 L 67.500,113.215 L 67.521,112.234 L 67.586,111.254 L 67.692,110.279 L 67.842,109.308 L 68.033,108.345 L 68.267,107.392 L 68.541,106.450 L 68.857,105.520 L 69.213,104.605 L 69.608,103.706 L 70.042,102.826 L 70.514,101.965 L 71.024,101.126 L 71.569,100.310 L 72.150,99.518 L 72.764,98.753 L 73.411,98.015 L 74.090,97.305 L 74.799,96.627 L 75.537,95.979 L 76.303,95.365 L 77.095,94.784 L 77.911,94.239 L 78.750,93.730 L 79.611,93.258 L 80.491,92.823 L 81.390,92.428 L 82.305,92.072 L 83.234,91.757 L 84.177,91.482 L 85.130,91.249 L 86.093,91.057 L 87.063,90.908 L 88.039,90.801 L 89.019,90.737 L 90.000,90.715 L 90.981,90.737 L 91.961,90.801 L 92.937,90.908 L 93.907,91.057 L 94.870,91.249 L 95.823,91.482 L 96.766,91.757 L 97.695,92.072 L 98.610,92.428 L 99.509,92.823 L 100.389,93.258 L 101.250,93.730 L 102.089,94.239 L 102.905,94.784 L 103.697,95.365 L 104.463,95.979 L 105.201,96.627 L 105.910,97.305 L 106.589,98.015 L 107.236,98.753 L 107.850,99.518 L 108.431,100.310 L 108.976,101.126 L 109.486,101.965 L 109.958,102.826 L 110.392,103.706 L 110.787,104.605 L 111.143,105.520 L 111.459,106.450 L 111.733,107.392 L 111.967,108.345 L 112.158,109.308 L 112.308,110.279 L 112.414,111.254 L 112.479,112.234 L 112.500,113.215 Z"/>
<path d="M 160.500,113.215 L 160.479,114.197 L 160.414,115.176 L 160.308,116.152 L 160.158,117.122 L 159.967,118.085 L 159.733,119.039 L 159.459,119.981 L 159.143,120.911 L 158.787,121.826 L 158.392,122.724 L 157.958,123.605 L 157.486,124.465 L 156.976,125.305 L 156.431,126.121 L 155.850,126.913 L 155.236,127.678 L 154.589,128.416 L 153.910,129.125 L 153.201,129.804 L 152.463,130.451 L 151.697,131.066 L 150.905,131.646 L 150.089,132.192 L 149.250,132.701 L 148.389,133.173 L 147.509,133.607 L 146.610,134.003 L 145.695,134.358 L 144.766,134.674 L 143.823,134.949 L 142.870,135.182 L 141.907,135.374 L 140.937,135.523 L 139.961,135.630 L 138.981,135.694 L 138.000,135.715 L 137.019,135.694 L 136.039,135.630 L 135.063,135.523 L 134.093,135.374 L 133.130,135.182 L 132.177,134.949 L 131.234,134.674 L 130.305,134.358 L 129.390,134.003 L 128.491,133.607 L 127.611,133.173 L 126.750,132.701 L 125.911,132.192 L 125.095,131.646 L 124.303,131.066 L 123.537,130.451 L 122.799,129.804 L 122.090,129.125 L 121.411,128.416 L 120.764,127.678 L 120.150,126.913 L 119.569,126.121 L 119.024,125.305 L 118.514,124.465 L 118.042,123.605 L 117.608,122.724 L 117.213,121.826 L 116.857,120.911 L 116.541,119.981 L 116.267,119.039 L 116.033,118.085 L 115.842,117.122 L 115.692,116.152 L 115.586,115.176 L 115.521,114.197 L 115.500,113.215 L 115.521,112.234 L 115.586,111.254 L 115.692,110.279 L 115.842,109.308 L 116.033,108.345 L 116.267,107.392 L 116.541,106.450 L 116.857,105.520 L 117.213,104.605 L 117.608,103.706 L 118.042,102.826 L 118.514,101.965 L 119.024,101.126 L 119.569,100.310 L 120.150,99.518 L 120.764,98.753 L 121.411,98.015 L 122.090,97.305 L 122.799,96.627 L 123.537,95.979 L 124.303,95.365 L 125.095,94.784 L 125.911,94.239 L 126.750,93.730 L 127.611,93.258 L 128.491,92.823 L 129.390,92.428 L 130.305,92.072 L 131.234,91.757 L 132.177,91.482 L 133.130,91.249 L 134.093,91.057 L 135.063,90.908 L 136.039,90.801 L 137.019,90.737 L 138.000,90.715 L 138.981,90.737 L 139.961,90.801 L 140.937,90.908 L 141.907,91.057 L 142.870,91.249 L 143.823,91.482 L 144.766,91.757 L 145.695,92.072 L 146.610,92.428 L 147.509,92.823 L 148.389,93.258 L 149.250,93.730 L 150.089,94.239 L 150.905,94.784 L 151.697,95.365 L 152.463,95.979 L 153.201,96.627 L 153.910,97.305 L 154.589,98.015 L 155.236,98.753 L 155.850,99.518 L 156.431,100.310 L 156.976,101.126 L 157.486,101.965 L 157.958,102.826 L 158.392,103.706 L 158.787,104.605 L 159.143,105.520 L 159.459,106.450 L 159.733,107.392 L 159.967,108.345 L 160.158,109.308 L 160.308,110.279 L 160.414,111.254 L 160.479,112.234 L 160.500,113.215 Z"/>
<path d="M 208.500,113.215 L 208.479,114.197 L 208.414,115.176 L 208.308,116.152 L 208.158,117.122 L 207.967,118.085 L 207.733,119.039 L 207.459,119.981 L 207.143,120.911 L 206.787,121.826 L 206.392,122.724 L 205.958,123.605 L 205.486,124.465 L 204.976,125.305 L 204.431,126.121 L 203.850,126.913 L 203.236,127.678 L 202.589,128.416 L 201.910,129.125 L 201.201,129.804 L 200.463,130.451 L 199.697,131.066 L 198.905,131.646 L 198.089,132.192 L 197.250,132.701 L 196.389,133.173 L 195.509,133.607 L 194.610,134.003 L 193.695,134.358 L 192.766,134.674 L 191.823,134.949 L 190.870,135.182 L 189.907,135.374 L 188.937,135.523 L 187.961,135.630 L 186.981,135.694 L 186.000,135.715 L 185.019,135.694 L 184.039,135.630 L 183.063,135.523 L 182.093,135.374 L 181.130,135.182 L 180.177,134.949 L 179.234,134.674 L 178.305,134.358 L 177.390,134.003 L 176.491,133.607 L 175.611,133.173 L 174.750,132.701 L 173.911,132.192 L 173.095,131.646 L 172.303,131.066 L 171.537,130.451 L 170.799,129.804 L 170.090,129.125 L 169.411,128.416 L 168.764,127.678 L 168.150,126.913 L 167.569,126.121 L 167.024,125.305 L 166.514,124.465 L 166.042,123.605 L 165.608,122.724 L 165.213,121.826 L 164.857,120.911 L 164.541,119.981 L 164.267,119.039 L 164.033,118.085 L 163.842,117.122 L 163.692,116.152 L 163.586,115.176 L 163.521,114.197 L 163.500,113.215 L 163.521,112.234 L 163.586,111.254 L 163.692,110.279 L 163.842,109.308 L 164.033,108.345 L 164.267,107.392 L 164.541,106.450 L 164.857,105.520 L 165.213,104.605 L 165.608,103.706 L 166.042,102.826 L 166.514,101.965 L 167.024,101.126 L 167.569,100.310 L 168.150,99.518 L 168.764,98.753 L 169.411,98.015 L 170.090,97.305 L 170.799,96.627 L 171.537,95.979 L 172.303,95.365 L 173.095,94.784 L 173.911,94.239 L 174.750,93.730 L 175.611,93.258 L 176.491,92.823 L 177.390,92.428 L 178.305,92.072 L 179.234,91.757 L 180.177,91.482 L 181.130,91.249 L 182.093,91.057 L 183.063,90.908 L 184.039,90.801 L 185.019,90.737 L 186.000,90.715 L 186.981,90.737 L 187.961,90.801 L 188.937,90.908 L 189.907,91.057 L 190.870,91.249 L 191.823,91.482 L 192.766,91.757 L 193.695,92.072 L 194.610,92.428 L 195.509,92.823 L 196.389,93.258 L 197.250,93.730 L 198.089,94.239 L 198.905,94.784 L 199.697,95.365 L 200.463,95.979 L 201.201,96.627 L 201.910,97.305 L 202.589,98.015 L 203.236,98.753 L 203.850,99.518 L 204.431,100.310 L 204.976,101.126 L 205.486,101.965 L 205.958,102.826 L 206.392,103.706 L 206.787,104.605 L 207.143,105.520 L 207.459,106.450 L 207.733,107.392 L 207.967,108.345 L 208.158,109.308 L 208.308,110.279 L 208.414,111.254 L 208.479,112.234 L 208.500,113.215 Z"/>
<path d="M 256.500,113.215 L 256.479,114.197 L 256.414,115.176 L 256.308,116.152 L 256.158,117.122 L 255.967,118.085 L 255.733,119.039 L 255.459,119.981 L 255.143,120.911 L 254.787,121.826 L 254.392,122.724 L 253.958,123.605 L 253.486,124.465 L 252.976,125.305 L 252.431,126.121 L 251.850,126.913 L 251.236,127.678 L 250.589,128.416 L 249.910,129.125 L 249.201,129.804 L 248.463,130.451 L 247.697,131.066 L 246.905,131.646 L 246.089,132.192 L 245.250,132.701 L 244.389,133.173 L 243.509,133.607 L 242.610,134.003 L 241.695,134.358 L 240.766,134.674 L 239.823,134.949 L 238.870,135.182 L 237.907,135.374 L 236.937,135.523 L 235.961,135.630 L 234.981,135.694 L 234.000,135.715 L 233.019,135.694 L 232.039,135.630 L 231.063,135.523 L 230.093,135.374 L 229.130,135.182 L 228.177,134.949 L 227.234,134.674 L 226.305,134.358 L 225.390,134.003 L 224.491,133.607 L 223.611,133.173 L 222.750,132.701 L 221.911,132.192 L 221.095,131.646 L 220.303,131.066 L 219.537,130.451 L 218.799,129.804 L 218.090,129.125 L 217.411,128.416 L 216.764,127.678 L 216.150,126.913 L 215.569,126.121 L 215.024,125.305 L 214.514,124.465 L 214.042,123.605 L 213.608,122.724 L 213.213,121.826 L 212.857,120.911 L 212.541,119.981 L 212.267,119.039 L 212.033,118.085 L 211.842,117.122 L 211.692,116.152 L 211.586,115.176 L 211.521,114.197 L 211.500,113.215 L 211.521,112.234 L 211.586,111.254 L 211.692,110.279 L 211.842,109.308 L 212.033,108.345 L 212.267,107.392 L 212.541,106.450 L 212.857,105.520 L 213.213,104.605 L 213.608,103.706 L 214.042,102.826 L 214.514,101.965 L 215.024,101.126 L 215.569,100.310 L 216.150,99.518 L 216.764,98.753 L 217.411,98.015 L 218.090,97.305 L 218.799,96.627 L 219.537,95.979 L 220.303,95.365 L 221.095,94.784 L 221.911,94.239 L 222.750,93.730 L 223.611,93.258 L 224.491,92.823 L 225.390,92.428 L 226.305,92.072 L 227.234,91.757 L 228.177,91.482 L 229.130,91.249 L 230.093,91.057 L 231.063,90.908 L 232.039,90.801 L 233.019,90.737 L 234.000,90.715 L 234.981,90.737 L 235.961,90.801 L 236.937,90.908 L 237.907,91.057 L 238.870,91.249 L 239.823,91.482 L 240.766,91.757 L 241.695,92.072 L 242.610,92.428 L 243.509,92.823 L 244.389,93.258 L 245.250,93.730 L 246.089,94.239 L 246.905,94.784 L 247.697,95.365 L 248.463,95.979 L 249.201,96.627 L 249.910,97.305 L 250.589,98.015 L 251.236,98.753 L 251.850,99.518 L 252.431,100.310 L 252.976,101.126 L 253.486,101.965 L 253.958,102.826 L 254.392,103.706 L 254.787,104.605 L 255.143,105.520 L 255.459,106.450 L 255.733,107.392 L 255.967,108.345 L 256.158,109.308 L 256.308,110.279 L 256.414,111.254 L 256.479,112.234 L 256.500,113.215 Z"/>
<path d="M 88.500,154.785 L 88.479,155.766 L 88.414,156.746 L 88.308,157.721 L 88.158,158.692 L 87.967,159.655 L 87.733,160.608 L 87.459,161.550 L 87.143,162.480 L 86.787,163.395 L 86.392,164.294 L 85.958,165.174 L 85.486,166.035 L 84.976,166.874 L 84.431,167.690 L 83.850,168.482 L 83.236,169.247 L 82.589,169.985 L 81.910,170.695 L 81.201,171.373 L 80.463,172.021 L 79.697,172.635 L 78.905,173.216 L 78.089,173.761 L 77.250,174.270 L 76.389,174.742 L 75.509,175.177 L 74.610,175.572 L 73.695,175.928 L 72.766,176.243 L 71.823,176.518 L 70.870,176.751 L 69.907,176.943 L 68.937,177.092 L 67.961,177.199 L 66.981,177.263 L 66.000,177.285 L 65.019,177.263 L 64.039,177.199 L 63.063,177.092 L 62.093,176.943 L 61.130,176.751 L 60.177,176.518 L 59.234,176.243 L 58.305,175.928 L 57.390,175.572 L 56.491,175.177 L 55.611,174.742 L 54.750,174.270 L 53.911,173.761 L 53.095,173.216 L 52.303,172.635 L 51.537,172.021 L 50.799,171.373 L 50.090,170.695 L 49.411,169.985 L 48.764,169.247 L 48.150,168.482 L 47.569,167.690 L 47.024,166.874 L 46.514,166.035 L 46.042,165.174 L 45.608,164.294 L 45.213,163.395 L 44.857,162.480 L 44.541,161.550 L 44.267,160.608 L 44.033,159.655 L 43.842,158.692 L 43.692,157.721 L 43.586,156.746 L 43.521,155.766 L 43.500,154.785 L 43.521,153.803 L 43.586,152.824 L 43.692,151.848 L 43.842,150.878 L 44.033,149.915 L 44.267,148.961 L 44.541,148.019 L 44.857,147.089 L 45.213,146.174 L 45.608,145.276 L 46.042,144.395 L 46.514,143.535 L 47.024,142.695 L 47.569,141.879 L 48.150,141.087 L 48.764,140.322 L 49.411,139.584 L 50.090,138.875 L 50.799,138.196 L 51.537,137.549 L 52.303,136.934 L 53.095,136.354 L 53.911,135.808 L 54.750,135.299 L 55.611,134.827 L 56.491,134.393 L 57.390,133.997 L 58.305,133.642 L 59.234,133.326 L 60.177,133.051 L 61.130,132.818 L 62.093,132.626 L 63.063,132.477 L 64.039,132.370 L 65.019,132.306 L 66.000,132.285 L 66.981,132.306 L 67.961,132.370 L 68.937,132.477 L 69.907,132.626 L 70.870,132.818 L 71.823,133.051 L 72.766,133.326 L 73.695,133.642 L 74.610,133.997 L 75.509,134.393 L 76.389,134.827 L 77.250,135.299 L 78.089,135.808 L 78.905,136.354 L 79.697,136.934 L 80.463,137.549 L 81.201,138.196 L 81.910,138.875 L 82.589,139.584 L 83.236,140.322 L 83.850,141.087 L 84.431,141.879 L 84.976,142.695 L 85.486,143.535 L 85.958,144.395 L 86.392,145.276 L 86.787,146.174 L 87.143,147.089 L 87.459,148.019 L 87.733,148.961 L 87.967,149.915 L 88.158,150.878 L 88.308,151.848 L 88.414,152.824 L 88.479,153.803 L 88.500,154.785 Z"/>
<path d="M 136.500,154.785 L 136.479,155.766 L 136.414,156.746 L 136.308,157.721 L 136.158,158.692 L 135.967,159.655 L 135.733,160.608 L 135.459,161.550 L 135.143,162.480 L 134.787,163.395 L 134.392,164.294 L 133.958,165.174 L 133.486,166.035 L 132.976,166.874 L 132.431,167.690 L 131.850,168.482 L 131.236,169.247 L 130.589,169.985 L 129.910,170.695 L 129.201,171.373 L 128.463,172.021 L 127.697,172.635 L 126.905,173.216 L 126.089,173.761 L 125.250,174.270 L 124.389,174.742 L 123.509,175.177 L 122.610,175.572 L 121.695,175.928 L 120.766,176.243 L 119.823,176.518 L 118.870,176.751 L 117.907,176.943 L 116.937,177.092 L 115.961,177.199 L 114.981,177.263 L 114.000,177.285 L 113.019,177.263 L 112.039,177.199 L 111.063,177.092 L 110.093,176.943 L 109.130,176.751 L 108.177,176.518 L 107.234,176.243 L 106.305,175.928 L 105.390,175.572 L 104.491,175.177 L 103.611,174.742 L 102.750,174.270 L 101.911,173.761 L 101.095,173.216 L 100.303,172.635 L 99.537,172.021 L 98.799,171.373 L 98.090,170.695 L 97.411,169.985 L 96.764,169.247 L 96.150,168.482 L 95.569,167.690 L 95.024,166.874 L 94.514,166.035 L 94.042,165.174 L 93.608,164.294 L 93.213,163.395 L 92.857,162.480 L 92.541,161.550 L 92.267,160.608 L 92.033,159.655 L 91.842,158.692 L 91.692,157.721 L 91.586,156.746 L 91.521,155.766 L 91.500,154.785 L 91.521,153.803 L 91.586,152.824 L 91.692,151.848 L 91.842,150.878 L 92.033,149.915 L 92.267,148.961 L 92.541,148.019 L 92.857,147.089 L 93.213,146.174 L 93.608,145.276 L 94.042,144.395 L 94.514,143.535 L 95.024,142.695 L 95.569,141.879 L 96.150,141.087 L 96.764,140.322 L 97.411,139.584 L 98.090,138.875 L 98.799,138.196 L 99.537,137.549 L 100.303,136.934 L 101.095,136.354 L 101.911,135.808 L 102.750,135.299 L 103.611,134.827 L 104.491,134.393 L 105.390,133.997 L 106.305,133.642 L 107.234,133.326 L 108.177,133.051 L 109.130,132.818 L 110.093,132.626 L 111.063,132.477 L 112.039,132.370 L 113.019,132.306 L 114.000,132.285 L 114.981,132.306 L 115.961,132.370 L 116.937,132.477 L 117.907,132.626 L 118.870,132.818 L 119.823,133.051 L 120.766,133.326 L 121.695,133.642 L 122.610,133.997 L 123.509,134.393 L 124.389,134.827 L 125.250,135.299 L 126.089,135.808 L 126.905,136.354 L 127.697,136.934 L 128.463,137.549 L 129.201,138.196 L 129.910,138.875 L 130.589,139.584 L 131.236,140.322 L 131.850,141.087 L 132.431,141.879 L 132.976,142.695 L 133.486,143.535 L 133.958,144.395 L 134.392,145.276 L 134.787,146.174 L 135.143,147.089 L 135.459,148.019 L 135.733,148.961 L 135.967,149.915 L 136.158,150.878 L 136.308,151.848 L 136.414,152.824 L 136.479,153.803 L 136.500,154.785 Z"/>
<path d="M 184.500,154.785 L 184.479,155.766 L 184.414,156.746 L 184.308,157.721 L 184.158,158.692 L 183.967,159.655 L 183.733,160.608 L 183.459,161.550 L 183.143,162.480 L 182.787,163.395 L 182.392,164.294 L 181.958,165.174 L 181.486,166.035 L 180.976,166.874 L 180.431,167.690 L 179.850,168.482 L 179.236,169.247 L 178.589,169.985 L 177.910,170.695 L 177.201,171.373 L 176.463,172.021 L 175.697,172.635 L 174.905,173.216 L 174.089,173.761 L 173.250,174.270 L 172.389,174.742 L 171.509,175.177 L 170.610,175.572 L 169.695,175.928 L 168.766,176.243 L 167.823,176.518 L 166.870,176.751 L 165.907,176.943 L 164.937,177.092 L 163.961,177.199 L 162.981,177.263 L 162.000,177.285 L 161.019,177.263 L 160.039,177.199 L 159.063,177.092 L 158.093,176.943 L 157.130,176.751 L 156.177,176.518 L 155.234,176.243 L 154.305,175.928 L 153.390,175.572 L 152.491,175.177 L 151.611,174.742 L 150.750,174.270 L 149.911,173.761 L 149.095,173.216 L 148.303,172.635 L 147.537,172.021 L 146.799,171.373 L 146.090,170.695 L 145.411,169.985 L 144.764,169.247 L 144.150,168.482 L 143.569,167.690 L 143.024,166.874 L 142.514,166.035 L 142.042,165.174 L 141.608,164.294 L 141.213,163.395 L 140.857,162.480 L 140.541,161.550 L 140.267,160.608 L 140.033,159.655 L 139.842,158.692 L 139.692,157.721 L 139.586,156.746 L 139.521,155.766 L 139.500,154.785 L 139.521,153.803 L 139.586,152.824 L 139.692,151.848 L 139.842,150.878 L 140.033,149.915 L 140.267,148.961 L 140.541,148.019 L 140.857,147.089 L 141.213,146.174 L 141.608,145.276 L 142.042,144.395 L 142.514,143.535 L 143.024,142.695 L 143.569,141.879 L 144.150,141.087 L 144.764,140.322 L 145.411,139.584 L 146.090,138.875 L 146.799,138.196 L 147.537,137.549 L 148.303,136.934 L 149.095,136.354 L 149.911,135.808 L 150.750,135.299 L 151.611,134.827 L 152.491,134.393 L 153.390,133.997 L 154.305,133.642 L 155.234,133.326 L 156.177,133.051 L 157.130,132.818 L 158.093,132.626 L 159.063,132.477 L 160.039,132.370 L 161.019,132.306 L 162.000,132.285 L 162.981,132.306 L 163.961,132.370 L 164.937,132.477 L 165.907,132.626 L 166.870,132.818 L 167.823,133.051 L 168.766,133.326 L 169.695,133.642 L 170.610,133.997 L 171.509,134.393 L 172.389,134.827 L 173.250,135.299 L 174.089,135.808 L 174.905,136.354 L 175.697,136.934 L 176.463,137.549 L 177.201,138.196 L 177.910,138.875 L 178.589,139.584 L 179.236,140.322 L 179.850,141.087 L 180.431,141.879 L 180.976,142.695 L 181.486,143.535 L 181.958,144.395 L 182.392,145.276 L 182.787,146.174 L 183.143,147.089 L 183.459,148.019 L 183.733,148.961 L 183.967,149.915 L 184.158,150.878 L 184.308,151.848 L 184.414,152.824 L 184.479,153.803 L 184.500,154.785 Z"/>
<path d="M 232.500,154.785 L 232.479,155.766 L 232.414,156.746 L 232.308,157.721 L 232.158,158.692 L 231.967,159.655 L 231.733,160.608 L 231.459,161.550 L 231.143,162.480 L 230.787,163.395 L 230.392,164.294 L 229.958,165.174 L 229.486,166.035 L 228.976,166.874 L 228.431,167.690 L 227.850,168.482 L 227.236,169.247 L 226.589,169.985 L 225.910,170.695 L 225.201,171.373 L 224.463,172.021 L 223.697,172.635 L 222.905,173.216 L 222.089,173.761 L 221.250,174.270 L 220.389,174.742 L 219.509,175.177 L 218.610,175.572 L 217.695,175.928 L 216.766,176.243 L 215.823,176.518 L 214.870,176.751 L 213.907,176.943 L 212.937,177.092 L 211.961,177.199 L 210.981,177.263 L 210.000,177.285 L 209.019,177.263 L 208.039,177.199 L 207.063,177.092 L 206.093,176.943 L 205.130,176.751 L 204.177,176.518 L 203.234,176.243 L 202.305,175.928 L 201.390,175.572 L 200.491,175.177 L 199.611,174.742 L 198.750,174.270 L 197.911,173.761 L 197.095,173.216 L 196.303,172.635 L 195.537,172.021 L 194.799,171.373 L 194.090,170.695 L 193.411,169.985 L 192.764,169.247 L 192.150,168.482 L 191.569,167.690 L 191.024,166.874 L 190.514,166.035 L 190.042,165.174 L 189.608,164.294 L 189.213,163.395 L 188.857,162.480 L 188.541,161.550 L 188.267,160.608 L 188.033,159.655 L 187.842,158.692 L 187.692,157.721 L 187.586,156.746 L 187.521,155.766 L 187.500,154.785 L 187.521,153.803 L 187.586,152.824 L 187.692,151.848 L 187.842,150.878 L 188.033,149.915 L 188.267,148.961 L 188.541,148.019 L 188.857,147.089 L 189.213,146.174 L 189.608,145.276 L 190.042,144.395 L 190.514,143.535 L 191.024,142.695 L 191.569,141.879 L 192.150,141.087 L 192.764,140.322 L 193.411,139.584 L 194.090,138.875 L 194.799,138.196 L 195.537,137.549 L 196.303,136.934 L 197.095,136.354 L 197.911,135.808 L 198.750,135.299 L 199.611,134.827 L 200.491,134.393 L 201.390,133.997 L 202.305,133.642 L 203.234,133.326 L 204.177,133.051 L 205.130,132.818 L 206.093,132.626 L 207.063,132.477 L 208.039,132.370 L 209.019,132.306 L 210.000,132.285 L 210.981,132.306 L 211.961,132.370 L 212.937,132.477 L 213.907,132.626 L 214.870,132.818 L 215.823,133.051 L 216.766,133.326 L 217.695,133.642 L 218.610,133.997 L 219.509,134.393 L 220.389,134.827 L 221.250,135.299 L 222.089,135.808 L 222.905,136.354 L 223.697,136.934 L 224.463,137.549 L 225.201,138.196 L 225.910,138.875 L 226.589,139.584 L 227.236,140.322 L 227.850,141.087 L 228.431,141.879 L 228.976,142.695 L 229.486,143.535 L 229.958,144.395 L 230.392,145.276 L 230.787,146.174 L 231.143,147.089 L 231.459,148.019 L 231.733,148.961 L 231.967,149.915 L 232.158,150.878 L 232.308,151.848 L 232.414,152.824 L 232.479,153.803 L 232.500,154.785 Z"/>
<path d="M 280.500,154.785 L 280.479,155.766 L 280.414,156.746 L 280.308,157.721 L 280.158,158.692 L 279.967,159.655 L 279.733,160.608 L 279.459,161.550 L 279.143,162.480 L 278.787,163.395 L 278.392,164.294 L 277.958,165.174 L 277.486,166.035 L 276.976,166.874 L 276.431,167.690 L 275.850,168.482 L 275.236,169.247 L 274.589,169.985 L 273.910,170.695 L 273.201,171.373 L 272.463,172.021 L 271.697,172.635 L 270.905,173.216 L 270.089,173.761 L 269.250,174.270 L 268.389,174.742 L 267.509,175.177 L 266.610,175.572 L 265.695,175.928 L 264.766,176.243 L 263.823,176.518 L 262.870,176.751 L 261.907,176.943 L 260.937,177.092 L 259.961,177.199 L 258.981,177.263 L 258.000,177.285 L 257.019,177.263 L 256.039,177.199 L 255.063,177.092 L 254.093,176.943 L 253.130,176.751 L 252.177,176.518 L 251.234,176.243 L 250.305,175.928 L 249.390,175.572 L 248.491,175.177 L 247.611,174.742 L 246.750,174.270 L 245.911,173.761 L 245.095,173.216 L 244.303,172.635 L 243.537,172.021 L 242.799,171.373 L 242.090,170.695 L 241.411,169.985 L 240.764,169.247 L 240.150,168.482 L 239.569,167.690 L 239.024,166.874 L 238.514,166.035 L 238.042,165.174 L 237.608,164.294 L 237.213,163.395 L 236.857,162.480 L 236.541,161.550 L 236.267,160.608 L 236.033,159.655 L 235.842,158.692 L 235.692,157.721 L 235.586,156.746 L 235.521,155.766 L 235.500,154.785 L 235.521,153.803 L 235.586,152.824 L 235.692,151.848 L 235.842,150.878 L 236.033,149.915 L 236.267,148.961 L 236.541,148.019 L 236.857,147.089 L 237.213,146.174 L 237.608,145.276 L 238.042,144.395 L 238.514,143.535 L 239.024,142.695 L 239.569,141.879 L 240.150,141.087 L 240.764,140.322 L 241.411,139.584 L 242.090,138.875 L 242.799,138.196 L 243.537,137.549 L 244.303,136.934 L 245.095,136.354 L 245.911,135.808 L 246.750,135.299 L 247.611,134.827 L 248.491,134.393 L 249.390,133.997 L 250.305,133.642 L 251.234,133.326 L 252.177,133.051 L 253.130,132.818 L 254.093,132.626 L 255.063,132.477 L 256.039,132.370 L 257.019,132.306 L 258.000,132.285 L 258.981,132.306 L 259.961,132.370 L 260.937,132.477 L 261.907,132.626 L 262.870,132.818 L 263.823,133.051 L 264.766,133.326 L 265.695,133.642 L 266.610,133.997 L 267.509,134.393 L 268.389,134.827 L 269.250,135.299 L 270.089,135.808 L 270.905,136.354 L 271.697,136.934 L 272.463,137.549 L 273.201,138.196 L 273.910,138.875 L 274.589,139.584 L 275.236,140.322 L 275.850,141.087 L 276.431,141.879 L 276.976,142.695 L 277.486,143.535 L 277.958,144.395 L 278.392,145.276 L 278.787,146.174 L 279.143,147.089 L 279.459,148.019 L 279.733,148.961 L 279.967,149.915 L 280.158,150.878 L 280.308,151.848 L 280.414,152.824 L 280.479,153.803 L 280.500,154.785 Z"/>
<path d="M 64.500,196.354 L 64.479,197.335 L 64.414,198.315 L 64.308,199.291 L 64.158,200.261 L 63.967,201.224 L 63.733,202.177 L 63.459,203.120 L 63.143,204.049 L 62.787,204.964 L 62.392,205.863 L 61.958,206.743 L 61.486,207.604 L 60.976,208.443 L 60.431,209.259 L 59.850,210.051 L 59.236,210.817 L 58.589,211.555 L 57.910,212.264 L 57.201,212.943 L 56.463,213.590 L 55.697,214.204 L 54.905,214.785 L 54.089,215.330 L 53.250,215.839 L 52.389,216.312 L 51.509,216.746 L 50.610,217.141 L 49.695,217.497 L 48.766,217.812 L 47.823,218.087 L 46.870,218.320 L 45.907,218.512 L 44.937,218.661 L 43.961,218.768 L 42.981,218.832 L 42.000,218.854 L 41.019,218.832 L 40.039,218.768 L 39.063,218.661 L 38.093,218.512 L 37.130,218.320 L 36.177,218.087 L 35.234,217.812 L 34.305,217.497 L 33.390,217.141 L 32.491,216.746 L 31.611,216.312 L 30.750,215.839 L 29.911,215.330 L 29.095,214.785 L 28.303,214.204 L 27.537,213.590 L 26.799,212.943 L 26.090,212.264 L 25.411,211.555 L 24.764,210.817 L 24.150,210.051 L 23.569,209.259 L 23.024,208.443 L 22.514,207.604 L 22.042,206.743 L 21.608,205.863 L 21.213,204.964 L 20.857,204.049 L 20.541,203.120 L 20.267,202.177 L 20.033,201.224 L 19.842,200.261 L 19.692,199.291 L 19.586,198.315 L 19.521,197.335 L 19.500,196.354 L 19.521,195.372 L 19.586,194.393 L 19.692,193.417 L 19.842,192.447 L 20.033,191.484 L 20.267,190.530 L 20.541,189.588 L 20.857,188.658 L 21.213,187.743 L 21.608,186.845 L 22.042,185.964 L 22.514,185.104 L 23.024,184.265 L 23.569,183.448 L 24.150,182.657 L 24.764,181.891 L 25.411,181.153 L 26.090,180.444 L 26.799,179.765 L 27.537,179.118 L 28.303,178.503 L 29.095,177.923 L 29.911,177.378 L 30.750,176.868 L 31.611,176.396 L 32.491,175.962 L 33.390,175.567 L 34.305,175.211 L 35.234,174.895 L 36.177,174.620 L 37.130,174.387 L 38.093,174.196 L 39.063,174.046 L 40.039,173.939 L 41.019,173.875 L 42.000,173.854 L 42.981,173.875 L 43.961,173.939 L 44.937,174.046 L 45.907,174.196 L 46.870,174.387 L 47.823,174.620 L 48.766,174.895 L 49.695,175.211 L 50.610,175.567 L 51.509,175.962 L 52.389,176.396 L 53.250,176.868 L 54.089,177.378 L 54.905,177.923 L 55.697,178.503 L 56.463,179.118 L 57.201,179.765 L 57.910,180.444 L 58.589,181.153 L 59.236,181.891 L 59.850,182.657 L 60.431,183.448 L 60.976,184.265 L 61.486,185.104 L 61.958,185.964 L 62.392,186.845 L 62.787,187.743 L 63.143,188.658 L 63.459,189.588 L 63.733,190.530 L 63.967,191.484 L 64.158,192.447 L 64.308,193.417 L 64.414,194.393 L 64.479,195.372 L 64.500,196.354 Z"/>
<path d="M 112.500,196.354 L 112.479,197.335 L 112.414,198.315 L 112.308,199.291 L 112.158,200.261 L 111.967,201.224 L 111.733,202.177 L 111.459,203.120 L 111.143,204.049 L 110.787,204.964 L 110.392,205.863 L 109.958,206.743 L 109.486,207.604 L 108.976,208.443 L 108.431,209.259 L 107.850,210.051 L 107.236,210.817 L 106.589,211.555 L 105.910,212.264 L 105.201,212.943 L 104.463,213.590 L 103.697,214.204 L 102.905,214.785 L 102.089,215.330 L 101.250,215.839 L 100.389,216.312 L 99.509,216.746 L 98.610,217.141 L 97.695,217.497 L 96.766,217.812 L 95.823,218.087 L 94.870,218.320 L 93.907,218.512 L 92.937,218.661 L 91.961,218.768 L 90.981,218.832 L 90.000,218.854 L 89.019,218.832 L 88.039,218.768 L 87.063,218.661 L 86.093,218.512 L 85.130,218.320 L 84.177,218.087 L 83.234,217.812 L 82.305,217.497 L 81.390,217.141 L 80.491,216.746 L 79.611,216.312 L 78.750,215.839 L 77.911,215.330 L 77.095,214.785 L 76.303,214.204 L 75.537,213.590 L 74.799,212.943 L 74.090,212.264 L 73.411,211.555 L 72.764,210.817 L 72.150,210.051 L 71.569,209.259 L 71.024,208.443 L 70.514,207.604 L 70.042,206.743 L 69.608,205.863 L 69.213,204.964 L 68.857,204.049 L 68.541,203.120 L 68.267,202.177 L 68.033,201.224 L 67.842,200.261 L 67.692,199.291 L 67.586,198.315 L 67.521,197.335 L 67.500,196.354 L 67.521,195.372 L 67.586,194.393 L 67.692,193.417 L 67.842,192.447 L 68.033,191.484 L 68.267,190.530 L 68.541,189.588 L 68.857,188.658 L 69.213,187.743 L 69.608,186.845 L 70.042,185.964 L 70.514,185.104 L 71.024,184.265 L 71.569,183.448 L 72.150,182.657 L 72.764,181.891 L 73.411,181.153 L 74.090,180.444 L 74.799,179.765 L 75.537,179.118 L 76.303,178.503 L 77.095,177.923 L 77.911,177.378 L 78.750,176.868 L 79.611,176.396 L 80.491,175.962 L 81.390,175.567 L 82.305,175.211 L 83.234,174.895 L 84.177,174.620 L 85.130,174.387 L 86.093,174.196 L 87.063,174.046 L 88.039,173.939 L 89.019,173.875 L 90.000,173.854 L 90.981,173.875 L 91.961,173.939 L 92.937,174.046 L 93.907,174.196 L 94.870,174.387 L 95.823,174.620 L 96.766,174.895 L 97.695,175.211 L 98.610,175.567 L 99.509,175.962 L 100.389,176.396 L 101.250,176.868 L 102.089,177.378 L 102.905,177.923 L 103.697,178.503 L 104.463,179.118 L 105.201,179.765 L 105.910,180.444 L 106.589,181.153 L 107.236,181.891 L 107.850,182.657 L 108.431,183.448 L 108.976,184.265 L 109.486,185.104 L 109.958,185.964 L 110.392,186.845 L 110.787,187.743 L 111.143,188.658 L 111.459,189.588 L 111.733,190.530 L 111.967,191.484 L 112.158,192.447 L 112.308,193.417 L 112.414,194.393 L 112.479,195.372 L 112.500,196.354 Z"/>
<path d="M 160.500,196.354 L 160.479,197.335 L 160.414,198.315 L 160.308,199.291 L 160.158,200.261 L 159.967,201.224 L 159.733,202.177 L 159.459,203.120 L 159.143,204.049 L 158.787,204.964 L 158.392,205.863 L 157.958,206.743 L 157.486,207.604 L 156.976,208.443 L 156.431,209.259 L 155.850,210.051 L 155.236,210.817 L 154.589,211.555 L 153.910,212.264 L 153.201,212.943 L 152.463,213.590 L 151.697,214.204 L 150.905,214.785 L 150.089,215.330 L 149.250,215.839 L 148.389,216.312 L 147.509,216.746 L 146.610,217.141 L 145.695,217.497 L 144.766,217.812 L 143.823,218.087 L 142.870,218.320 L 141.907,218.512 L 140.937,218.661 L 139.961,218.768 L 138.981,218.832 L 138.000,218.854 L 137.019,218.832 L 136.039,218.768 L 135.063,218.661 L 134.093,218.512 L 133.130,218.320 L 132.177,218.087 L 131.234,217.812 L 130.305,217.497 L 129.390,217.141 L 128.491,216.746 L 127.611,216.312 L 126.750,215.839 L 125.911,215.330 L 125.095,214.785 L 124.303,214.204 L 123.537,213.590 L 122.799,212.943 L 122.090,212.264 L 121.411,211.555 L 120.764,210.817 L 120.150,210.051 L 119.569,209.259 L 119.024,208.443 L 118.514,207.604 L 118.042,206.743 L 117.608,205.863 L 117.213,204.964 L 116.857,204.049 L 116.541,203.120 L 116.267,202.177 L 116.033,201.224 L 115.842,200.261 L 115.692,199.291 L 115.586,198.315 L 115.521,197.335 L 115.500,196.354 L 115.521,195.372 L 115.586,194.393 L 115.692,193.417 L 115.842,192.447 L 116.033,191.484 L 116.267,190.530 L 116.541,189.588 L 116.857,188.658 L 117.213,187.743 L 117.608,186.845 L 118.042,185.964 L 118.514,185.104 L 119.024,184.265 L 119.569,183.448 L 120.150,182.657 L 120.764,181.891 L 121.411,181.153 L 122.090,180.444 L 122.799,179.765 L 123.537,179.118 L 124.303,178.503 L 125.095,177.923 L 125.911,177.378 L 126.750,176.868 L 127.611,176.396 L 128.491,175.962 L 129.390,175.567 L 130.305,175.211 L 131.234,174.895 L 132.177,174.620 L 133.130,174.387 L 134.093,174.196 L 135.063,174.046 L 136.039,173.939 L 137.019,173.875 L 138.000,173.854 L 138.981,173.875 L 139.961,173.939 L 140.937,174.046 L 141.907,174.196 L 142.870,174.387 L 143.823,174.620 L 144.766,174.895 L 145.695,175.211 L 146.610,175.567 L 147.509,175.962 L 148.389,176.396 L 149.250,176.868 L 150.089,177.378 L 150.905,177.923 L 151.697,178.503 L 152.463,179.118 L 153.201,179.765 L 153.910,180.444 L 154.589,181.153 L 155.236,181.891 L 155.850,182.657 L 156.431,183.448 L 156.976,184.265 L 157.486,185.104 L 157.958,185.964 L 158.392,186.845 L 158.787,187.743 L 159.143,188.658 L 159.459,189.588 L 159.733,190.530 L 159.967,191.484 L 160.158,192.447 L 160.308,193.417 L 160.414,194.393 L 160.479,195.372 L 160.500,196.354 Z"/>
<path d="M 208.500,196.354 L 208.479,197.335 L 208.414,198.315 L 208.308,199.291 L 208.158,200.261 L 207.967,201.224 L 207.733,202.177 L 207.459,203.120 L 207.143,204.049 L 206.787,204.964 L 206.392,205.863 L 205.958,206.743 L 205.486,207.604 L 204.976,208.443 L 204.431,209.259 L 203.850,210.051 L 203.236,210.817 L 202.589,211.555 L 201.910,212.264 L 201.201,212.943 L 200.463,213.590 L 199.697,214.204 L 198.905,214.785 L 198.089,215.330 L 197.250,215.839 L 196.389,216.312 L 195.509,216.746 L 194.610,217.141 L 193.695,217.497 L 192.766,217.812 L 191.823,218.087 L 190.870,218.320 L 189.907,218.512 L 188.937,218.661 L 187.961,218.768 L 186.981,218.832 L 186.000,218.854 L 185.019,218.832 L 184.039,218.768 L 183.063,218.661 L 182.093,218.512 L 181.130,218.320 L 180.177,218.087 L 179.234,217.812 L 178.305,217.497 L 177.390,217.141 L 176.491,216.746 L 175.611,216.312 L 174.750,215.839 L 173.911,215.330 L 173.095,214.785 L 172.303,214.204 L 171.537,213.590 L 170.799,212.943 L 170.090,212.264 L 169.411,211.555 L 168.764,210.817 L 168.150,210.051 L 167.569,209.259 L 167.024,208.443 L 166.514,207.604 L 166.042,206.743 L 165.608,205.863 L 165.213,204.964 L 164.857,204.049 L 164.541,203.120 L 164.267,202.177 L 164.033,201.224 L 163.842,200.261 L 163.692,199.291 L 163.586,198.315 L 163.521,197.335 L 163.500,196.354 L 163.521,195.372 L 163.586,194.393 L 163.692,193.417 L 163.842,192.447 L 164.033,191.484 L 164.267,190.530 L 164.541,189.588 L 164.857,188.658 L 165.213,187.743 L 165.608,186.845 L 166.042,185.964 L 166.514,185.104 L 167.024,184.265 L 167.569,183.448 L 168.150,182.657 L 168.764,181.891 L 169.411,181.153 L 170.090,180.444 L 170.799,179.765 L 171.537,179.118 L 172.303,178.503 L 173.095,177.923 L 173.911,177.378 L 174.750,176.868 L 175.611,176.396 L 176.491,175.962 L 177.390,175.567 L 178.305,175.211 L 179.234,174.895 L 180.177,174.620 L 181.130,174.387 L 182.093,174.196 L 183.063,174.046 L 184.039,173.939 L 185.019,173.875 L 186.000,173.854 L 186.981,173.875 L 187.961,173.939 L 188.937,174.046 L 189.907,174.196 L 190.870,174.387 L 191.823,174.620 L 192.766,174.895 L 193.695,175.211 L 194.610,175.567 L 195.509,175.962 L 196.389,176.396 L 197.250,176.868 L 198.089,177.378 L 198.905,177.923 L 199.697,178.503 L 200.463,179.118 L 201.201,179.765 L 201.910,180.444 L 202.589,181.153 L 203.236,181.891 L 203.850,182.657 L 204.431,183.448 L 204.976,184.265 L 205.486,185.104 L 205.958,185.964 L 206.392,186.845 L 206.787,187.743 L 207.143,188.658 L 207.459,189.588 L 207.733,190.530 L 207.967,191.484 L 208.158,192.447 L 208.308,193.417 L 208.414,194.393 L 208.479,195.372 L 208.500,196.354 Z"/>
<path d="M 256.500,196.354 L 256.479,197.335 L 256.414,198.315 L 256.308,199.291 L 256.158,200.261 L 255.967,201.224 L 255.733,202.177 L 255.459,203.120 L 255.143,204.049 L 254.787,204.964 L 254.392,205.863 L 253.958,206.743 L 253.486,207.604 L 252.976,208.443 L 252.431,209.259 L 251.850,210.051 L 251.236,210.817 L 250.589,211.555 L 249.910,212.264 L 249.201,212.943 L 248.463,213.590 L 247.697,214.204 L 246.905,214.785 L 246.089,215.330 L 245.250,215.839 L 244.389,216.312 L 243.509,216.746 L 242.610,217.141 L 241.695,217.497 L 240.766,217.812 L 239.823,218.087 L 238.870,218.320 L 237.907,218.512 L 236.937,218.661 L 235.961,218.768 L 234.981,218.832 L 234.000,218.854 L 233.019,218.832 L 232.039,218.768 L 231.063,218.661 L 230.093,218.512 L 229.130,218.320 L 228.177,218.087 L 227.234,217.812 L 226.305,217.497 L 225.390,217.141 L 224.491,216.746 L 223.611,216.312 L 222.750,215.839 L 221.911,215.330 L 221.095,214.785 L 220.303,214.204 L 219.537,213.590 L 218.799,212.943 L 218.090,212.264 L 217.411,211.555 L 216.764,210.817 L 216.150,210.051 L 215.569,209.259 L 215.024,208.443 L 214.514,207.604 L 214.042,206.743 L 213.608,205.863 L 213.213,204.964 L 212.857,204.049 L 212.541,203.120 L 212.267,202.177 L 212.033,201.224 L 211.842,200.261 L 211.692,199.291 L 211.586,198.315 L 211.521,197.335 L 211.500,196.354 L 211.521,195.372 L 211.586,194.393 L 211.692,193.417 L 211.842,192.447 L 212.033,191.484 L 212.267,190.530 L 212.541,189.588 L 212.857,188.658 L 213.213,187.743 L 213.608,186.845 L 214.042,185.964 L 214.514,185.104 L 215.024,184.265 L 215.569,183.448 L 216.150,182.657 L 216.764,181.891 L 217.411,181.153 L 218.090,180.444 L 218.799,179.765 L 219.537,179.118 L 220.303,178.503 L 221.095,177.923 L 221.911,177.378 L 222.750,176.868 L 223.611,176.396 L 224.491,175.962 L 225.390,175.567 L 226.305,175.211 L 227.234,174.895 L 228.177,174.620 L 229.130,174.387 L 230.093,174.196 L 231.063,174.046 L 232.039,173.939 L 233.019,173.875 L 234.000,173.854 L 234.981,173.875 L 235.961,173.939 L 236.937,174.046 L 237.907,174.196 L 238.870,174.387 L 239.823,174.620 L 240.766,174.895 L 241.695,175.211 L 242.610,175.567 L 243.509,175.962 L 244.389,176.396 L 245.250,176.868 L 246.089,177.378 L 246.905,177.923 L 247.697,178.503 L 248.463,179.118 L 249.201,179.765 L 249.910,180.444 L 250.589,181.153 L 251.236,181.891 L 251.850,182.657 L 252.431,183.448 L 252.976,184.265 L 253.486,185.104 L 253.958,185.964 L 254.392,186.845 L 254.787,187.743 L 255.143,188.658 L 255.459,189.588 L 255.733,190.530 L 255.967,191.484 L 256.158,192.447 L 256.308,193.417 L 256.414,194.393 L 256.479,195.372 L 256.500,196.354 Z"/>
<path d="M 88.500,237.923 L 88.479,238.904 L 88.414,239.884 L 88.308,240.860 L 88.158,241.830 L 87.967,242.793 L 87.733,243.746 L 87.459,244.689 L 87.143,245.619 L 86.787,246.533 L 86.392,247.432 L 85.958,248.312 L 85.486,249.173 L 84.976,250.012 L 84.431,250.829 L 83.850,251.620 L 83.236,252.386 L 82.589,253.124 L 81.910,253.833 L 81.201,254.512 L 80.463,255.159 L 79.697,255.773 L 78.905,256.354 L 78.089,256.899 L 77.250,257.409 L 76.389,257.881 L 75.509,258.315 L 74.610,258.710 L 73.695,259.066 L 72.766,259.382 L 71.823,259.656 L 70.870,259.890 L 69.907,260.081 L 68.937,260.231 L 67.961,260.337 L 66.981,260.402 L 66.000,260.423 L 65.019,260.402 L 64.039,260.337 L 63.063,260.231 L 62.093,260.081 L 61.130,259.890 L 60.177,259.656 L 59.234,259.382 L 58.305,259.066 L 57.390,258.710 L 56.491,258.315 L 55.611,257.881 L 54.750,257.409 L 53.911,256.899 L 53.095,256.354 L 52.303,255.773 L 51.537,255.159 L 50.799,254.512 L 50.090,253.833 L 49.411,253.124 L 48.764,252.386 L 48.150,251.620 L 47.569,250.829 L 47.024,250.012 L 46.514,249.173 L 46.042,248.312 L 45.608,247.432 L 45.213,246.533 L 44.857,245.619 L 44.541,244.689 L 44.267,243.746 L 44.033,242.793 L 43.842,241.830 L 43.692,240.860 L 43.586,239.884 L 43.521,238.904 L 43.500,237.923 L 43.521,236.942 L 43.586,235.962 L 43.692,234.986 L 43.842,234.016 L 44.033,233.053 L 44.267,232.100 L 44.541,231.157 L 44.857,230.228 L 45.213,229.313 L 45.608,228.414 L 46.042,227.534 L 46.514,226.673 L 47.024,225.834 L 47.569,225.018 L 48.150,224.226 L 48.764,223.460 L 49.411,222.722 L 50.090,222.013 L 50.799,221.334 L 51.537,220.687 L 52.303,220.073 L 53.095,219.492 L 53.911,218.947 L 54.750,218.437 L 55.611,217.965 L 56.491,217.531 L 57.390,217.136 L 58.305,216.780 L 59.234,216.464 L 60.177,216.190 L 61.130,215.956 L 62.093,215.765 L 63.063,215.616 L 64.039,215.509 L 65.019,215.444 L 66.000,215.423 L 66.981,215.444 L 67.961,215.509 L 68.937,215.616 L 69.907,215.765 L 70.870,215.956 L 71.823,216.190 L 72.766,216.464 L 73.695,216.780 L 74.610,217.136 L 75.509,217.531 L 76.389,217.965 L 77.250,218.437 L 78.089,218.947 L 78.905,219.492 L 79.697,220.073 L 80.463,220.687 L 81.201,221.334 L 81.910,222.013 L 82.589,222.722 L 83.236,223.460 L 83.850,224.226 L 84.431,225.018 L 84.976,225.834 L 85.486,226.673 L 85.958,227.534 L 86.392,228.414 L 86.787,229.313 L 87.143,230.228 L 87.459,231.157 L 87.733,232.100 L 87.967,233.053 L 88.158,234.016 L 88.308,234.986 L 88.414,235.962 L 88.479,236.942 L 88.500,237.923 Z"/>
<path d="M 136.500,237.923 L 136.479,238.904 L 136.414,239.884 L 136.308,240.860 L 136.158,241.830 L 135.967,242.793 L 135.733,243.746 L 135.459,244.689 L 135.143,245.619 L 134.787,246.533 L 134.392,247.432 L 133.958,248.312 L 133.486,249.173 L 132.976,250.012 L 132.431,250.829 L 131.850,251.620 L 131.236,252.386 L 130.589,253.124 L 129.910,253.833 L 129.201,254.512 L 128.463,255.159 L 127.697,255.773 L 126.905,256.354 L 126.089,256.899 L 125.250,257.409 L 124.389,257.881 L 123.509,258.315 L 122.610,258.710 L 121.695,259.066 L 120.766,259.382 L 119.823,259.656 L 118.870,259.890 L 117.907,260.081 L 116.937,260.231 L 115.961,260.337 L 114.981,260.402 L 114.000,260.423 L 113.019,260.402 L 112.039,260.337 L 111.063,260.231 L 110.093,260.081 L 109.130,259.890 L 108.177,259.656 L 107.234,259.382 L 106.305,259.066 L 105.390,258.710 L 104.491,258.315 L 103.611,257.881 L 102.750,257.409 L 101.911,256.899 L 101.095,256.354 L 100.303,255.773 L 99.537,255.159 L 98.799,254.512 L 98.090,253.833 L 97.411,253.124 L 96.764,252.386 L 96.150,251.620 L 95.569,250.829 L 95.024,250.012 L 94.514,249.173 L 94.042,248.312 L 93.608,247.432 L 93.213,246.533 L 92.857,245.619 L 92.541,244.689 L 92.267,243.746 L 92.033,242.793 L 91.842,241.830 L 91.692,240.860 L 91.586,239.884 L 91.521,238.904 L 91.500,237.923 L 91.521,236.942 L 91.586,235.962 L 91.692,234.986 L 91.842,234.016 L 92.033,233.053 L 92.267,232.100 L 92.541,231.157 L 92.857,230.228 L 93.213,229.313 L 93.608,228.414 L 94.042,227.534 L 94.514,226.673 L 95.024,225.834 L 95.569,225.018 L 96.150,224.226 L 96.764,223.460 L 97.411,222.722 L 98.090,222.013 L 98.799,221.334 L 99.537,220.687 L 100.303,220.073 L 101.095,219.492 L 101.911,218.947 L 102.750,218.437 L 103.611,217.965 L 104.491,217.531 L 105.390,217.136 L 106.305,216.780 L 107.234,216.464 L 108.177,216.190 L 109.130,215.956 L 110.093,215.765 L 111.063,215.616 L 112.039,215.509 L 113.019,215.444 L 114.000,215.423 L 114.981,215.444 L 115.961,215.509 L 116.937,215.616 L 117.907,215.765 L 118.870,215.956 L 119.823,216.190 L 120.766,216.464 L 121.695,216.780 L 122.610,217.136 L 123.509,217.531 L 124.389,217.965 L 125.250,218.437 L 126.089,218.947 L 126.905,219.492 L 127.697,220.073 L 128.463,220.687 L 129.201,221.334 L 129.910,222.013 L 130.589,222.722 L 131.236,223.460 L 131.850,224.226 L 132.431,225.018 L 132.976,225.834 L 133.486,226.673 L 133.958,227.534 L 134.392,228.414 L 134.787,229.313 L 135.143,230.228 L 135.459,231.157 L 135.733,232.100 L 135.967,233.053 L 136.158,234.016 L 136.308,234.986 L 136.414,235.962 L 136.479,236.942 L 136.500,237.923 Z"/>
<path d="M 184.500,237.923 L 184.479,238.904 L 184.414,239.884 L 184.308,240.860 L 184.158,241.830 L 183.967,242.793 L 183.733,243.746 L 183.459,244.689 L 183.143,245.619 L 182.787,246.533 L 182.392,247.432 L 181.958,248.312 L 181.486,249.173 L 180.976,250.012 L 180.431,250.829 L 179.850,251.620 L 179.236,252.386 L 178.589,253.124 L 177.910,253.833 L 177.201,254.512 L 176.463,255.159 L 175.697,255.773 L 174.905,256.354 L 174.089,256.899 L 173.250,257.409 L 172.389,257.881 L 171.509,258.315 L 170.610,258.710 L 169.695,259.066 L 168.766,259.382 L 167.823,259.656 L 166.870,259.890 L 165.907,260.081 L 164.937,260.231 L 163.961,260.337 L 162.981,260.402 L 162.000,260.423 L 161.019,260.402 L 160.039,260.337 L 159.063,260.231 L 158.093,260.081 L 157.130,259.890 L 156.177,259.656 L 155.234,259.382 L 154.305,259.066 L 153.390,258.710 L 152.491,258.315 L 151.611,257.881 L 150.750,257.409 L 149.911,256.899 L 149.095,256.354 L 148.303,255.773 L 147.537,255.159 L 146.799,254.512 L 146.090,253.833 L 145.411,253.124 L 144.764,252.386 L 144.150,251.620 L 143.569,250.829 L 143.024,250.012 L 142.514,249.173 L 142.042,248.312 L 141.608,247.432 L 141.213,246.533 L 140.857,245.619 L 140.541,244.689 L 140.267,243.746 L 140.033,242.793 L 139.842,241.830 L 139.692,240.860 L 139.586,239.884 L 139.521,238.904 L 139.500,237.923 L 139.521,236.942 L 139.586,235.962 L 139.692,234.986 L 139.842,234.016 L 140.033,233.053 L 140.267,232.100 L 140.541,231.157 L 140.857,230.228 L 141.213,229.313 L 141.608,228.414 L 142.042,227.534 L 142.514,226.673 L 143.024,225.834 L 143.569,225.018 L 144.150,224.226 L 144.764,223.460 L 145.411,222.722 L 146.090,222.013 L 146.799,221.334 L 147.537,220.687 L 148.303,220.073 L 149.095,219.492 L 149.911,218.947 L 150.750,218.437 L 151.611,217.965 L 152.491,217.531 L 153.390,217.136 L 154.305,216.780 L 155.234,216.464 L 156.177,216.190 L 157.130,215.956 L 158.093,215.765 L 159.063,215.616 L 160.039,215.509 L 161.019,215.444 L 162.000,215.423 L 162.981,215.444 L 163.961,215.509 L 164.937,215.616 L 165.907,215.765 L 166.870,215.956 L 167.823,216.190 L 168.766,216.464 L 169.695,216.780 L 170.610,217.136 L 171.509,217.531 L 172.389,217.965 L 173.250,218.437 L 174.089,218.947 L 174.905,219.492 L 175.697,220.073 L 176.463,220.687 L 177.201,221.334 L 177.910,222.013 L 178.589,222.722 L 179.236,223.460 L 179.850,224.226 L 180.431,225.018 L 180.976,225.834 L 181.486,226.673 L 181.958,227.534 L 182.392,228.414 L 182.787,229.313 L 183.143,230.228 L 183.459,231.157 L 183.733,232.100 L 183.967,233.053 L 184.158,234.016 L 184.308,234.986 L 184.414,235.962 L 184.479,236.942 L 184.500,237.923 Z"/>
<path d="M 232.500,237.923 L 232.479,238.904 L 232.414,239.884 L 232.308,240.860 L 232.158,241.830 L 231.967,242.793 L 231.733,243.746 L 231.459,244.689 L 231.143,245.619 L 230.787,246.533 L 230.392,247.432 L 229.958,248.312 L 229.486,249.173 L 228.976,250.012 L 228.431,250.829 L 227.850,251.620 L 227.236,252.386 L 226.589,253.124 L 225.910,253.833 L 225.201,254.512 L 224.463,255.159 L 223.697,255.773 L 222.905,256.354 L 222.089,256.899 L 221.250,257.409 L 220.389,257.881 L 219.509,258.315 L 218.610,258.710 L 217.695,259.066 L 216.766,259.382 L 215.823,259.656 L 214.870,259.890 L 213.907,260.081 L 212.937,260.231 L 211.961,260.337 L 210.981,260.402 L 210.000,260.423 L 209.019,260.402 L 208.039,260.337 L 207.063,260.231 L 206.093,260.081 L 205.130,259.890 L 204.177,259.656 L 203.234,259.382 L 202.305,259.066 L 201.390,258.710 L 200.491,258.315 L 199.611,257.881 L 198.750,257.409 L 197.911,256.899 L 197.095,256.354 L 196.303,255.773 L 195.537,255.159 L 194.799,254.512 L 194.090,253.833 L 193.411,253.124 L 192.764,252.386 L 192.150,251.620 L 191.569,250.829 L 191.024,250.012 L 190.514,249.173 L 190.042,248.312 L 189.608,247.432 L 189.213,246.533 L 188.857,245.619 L 188.541,244.689 L 188.267,243.746 L 188.033,242.793 L 187.842,241.830 L 187.692,240.860 L 187.586,239.884 L 187.521,238.904 L 187.500,237.923 L 187.521,236.942 L 187.586,235.962 L 187.692,234.986 L 187.842,234.016 L 188.033,233.053 L 188.267,232.100 L 188.541,231.157 L 188.857,230.228 L 189.213,229.313 L 189.608,228.414 L 190.042,227.534 L 190.514,226.673 L 191.024,225.834 L 191.569,225.018 L 192.150,224.226 L 192.764,223.460 L 193.411,222.722 L 194.090,222.013 L 194.799,221.334 L 195.537,220.687 L 196.303,220.073 L 197.095,219.492 L 197.911,218.947 L 198.750,218.437 L 199.611,217.965 L 200.491,217.531 L 201.390,217.136 L 202.305,216.780 L 203.234,216.464 L 204.177,216.190 L 205.130,215.956 L 206.093,215.765 L 207.063,215.616 L 208.039,215.509 L 209.019,215.444 L 210.000,215.423 L 210.981,215.444 L 211.961,215.509 L 212.937,215.616 L 213.907,215.765 L 214.870,215.956 L 215.823,216.190 L 216.766,216.464 L 217.695,216.780 L 218.610,217.136 L 219.509,217.531 L 220.389,217.965 L 221.250,218.437 L 222.089,218.947 L 222.905,219.492 L 223.697,220.073 L 224.463,220.687 L 225.201,221.334 L 225.910,222.013 L 226.589,222.722 L 227.236,223.460 L 227.850,224.226 L 228.431,225.018 L 228.976,225.834 L 229.486,226.673 L 229.958,227.534 L 230.392,228.414 L 230.787,229.313 L 231.143,230.228 L 231.459,231.157 L 231.733,232.100 L 231.967,233.053 L 232.158,234.016 L 232.308,234.986 L 232.414,235.962 L 232.479,236.942 L 232.500,237.923 Z"/>
<path d="M 280.500,237.923 L 280.479,238.904 L 280.414,239.884 L 280.308,240.860 L 280.158,241.830 L 279.967,242.793 L 279.733,243.746 L 279.459,244.689 L 279.143,245.619 L 278.787,246.533 L 278.392,247.432 L 277.958,248.312 L 277.486,249.173 L 276.976,250.012 L 276.431,250.829 L 275.850,251.620 L 275.236,252.386 L 274.589,253.124 L 273.910,253.833 L 273.201,254.512 L 272.463,255.159 L 271.697,255.773 L 270.905,256.354 L 270.089,256.899 L 269.250,257.409 L 268.389,257.881 L 267.509,258.315 L 266.610,258.710 L 265.695,259.066 L 264.766,259.382 L 263.823,259.656 L 262.870,259.890 L 261.907,260.081 L 260.937,260.231 L 259.961,260.337 L 258.981,260.402 L 258.000,260.423 L 257.019,260.402 L 256.039,260.337 L 255.063,260.231 L 254.093,260.081 L 253.130,259.890 L 252.177,259.656 L 251.234,259.382 L 250.305,259.066 L 249.390,258.710 L 248.491,258.315 L 247.611,257.881 L 246.750,257.409 L 245.911,256.899 L 245.095,256.354 L 244.303,255.773 L 243.537,255.159 L 242.799,254.512 L 242.090,253.833 L 241.411,253.124 L 240.764,252.386 L 240.150,251.620 L 239.569,250.829 L 239.024,250.012 L 238.514,249.173 L 238.042,248.312 L 237.608,247.432 L 237.213,246.533 L 236.857,245.619 L 236.541,244.689 L 236.267,243.746 L 236.033,242.793 L 235.842,241.830 L 235.692,240.860 L 235.586,239.884 L 235.521,238.904 L 235.500,237.923 L 235.521,236.942 L 235.586,235.962 L 235.692,234.986 L 235.842,234.016 L 236.033,233.053 L 236.267,232.100 L 236.541,231.157 L 236.857,230.228 L 237.213,229.313 L 237.608,228.414 L 238.042,227.534 L 238.514,226.673 L 239.024,225.834 L 239.569,225.018 L 240.150,224.226 L 240.764,223.460 L 241.411,222.722 L 242.090,222.013 L 242.799,221.334 L 243.537,220.687 L 244.303,220.073 L 245.095,219.492 L 245.911,218.947 L 246.750,218.437 L 247.611,217.965 L 248.491,217.531 L 249.390,217.136 L 250.305,216.780 L 251.234,216.464 L 252.177,216.190 L 253.130,215.956 L 254.093,215.765 L 255.063,215.616 L 256.039,215.509 L 257.019,215.444 L 258.000,215.423 L 258.981,215.444 L 259.961,215.509 L 260.937,215.616 L 261.907,215.765 L 262.870,215.956 L 263.823,216.190 L 264.766,216.464 L 265.695,216.780 L 266.610,217.136 L 267.509,217.531 L 268.389,217.965 L 269.250,218.437 L 270.089,218.947 L 270.905,219.492 L 271.697,220.073 L 272.463,220.687 L 273.201,221.334 L 273.910,222.013 L 274.589,222.722 L 275.236,223.460 L 275.850,224.226 L 276.431,225.018 L 276.976,225.834 L 277.486,226.673 L 277.958,227.534 L 278.392,228.414 L 278.787,229.313 L 279.143,230.228 L 279.459,231.157 L 279.733,232.100 L 279.967,233.053 L 280.158,234.016 L 280.308,234.986 L 280.414,235.962 L 280.479,236.942 L 280.500,237.923 Z"/>
</g>
</g>
</svg>
