<?xml version="1.0" encoding="UTF-8"?>
<svg xmlns="http://www.w3.org/2000/svg" width="300.000mm" height="268.000mm" viewBox="0 0 300.000 268.000">
<metadata>Through-cut operation sidecar only. Units: millimeters.</metadata>
<g transform="translate(0 268.000) scale(1 -1)">
<g id="through_cut" fill="none" stroke="#ff0000" stroke-width="0.12">
<path d="M 117.000,134.000 L 112.285,136.738 L 115.923,140.798 L 110.593,141.945 L 112.798,146.931 L 107.374,146.374 L 107.931,151.798 L 102.945,149.593 L 101.798,154.923 L 97.738,151.285 L 95.000,156.000 L 92.262,151.285 L 88.202,154.923 L 87.055,149.593 L 82.069,151.798 L 82.626,146.374 L 77.202,146.931 L 79.407,141.945 L 74.077,140.798 L 77.715,136.738 L 73.000,134.000 L 77.715,131.262 L 74.077,127.202 L 79.407,126.055 L 77.202,121.069 L 82.626,121.626 L 82.069,116.202 L 87.055,118.407 L 88.202,113.077 L 92.262,116.715 L 95.000,112.000 L 97.738,116.715 L 101.798,113.077 L 102.945,118.407 L 107.931,116.202 L 107.374,121.626 L 112.798,121.069 L 110.593,126.055 L 115.923,127.202 L 112.285,131.262 L 117.000,134.000 Z"/>
<path d="M 97.600,134.000 L 97.587,134.255 L 97.550,134.507 L 97.488,134.755 L 97.402,134.995 L 97.293,135.226 L 97.162,135.444 L 97.010,135.649 L 96.838,135.838 L 96.649,136.010 L 96.444,136.162 L 96.226,136.293 L 95.995,136.402 L 95.755,136.488 L 95.507,136.550 L 95.255,136.587 L 95.000,136.600 L 94.745,136.587 L 94.493,136.550 L 94.245,136.488 L 94.005,136.402 L 93.774,136.293 L 93.556,136.162 L 93.351,136.010 L 93.162,135.838 L 92.990,135.649 L 92.838,135.444 L 92.707,135.226 L 92.598,134.995 L 92.512,134.755 L 92.450,134.507 L 92.413,134.255 L 92.400,134.000 L 92.413,133.745 L 92.450,133.493 L 92.512,133.245 L 92.598,133.005 L 92.707,132.774 L 92.838,132.556 L 92.990,132.351 L 93.162,132.162 L 93.351,131.990 L 93.556,131.838 L 93.774,131.707 L 94.005,131.598 L 94.245,131.512 L 94.493,131.450 L 94.745,131.413 L 95.000,131.400 L 95.255,131.413 L 95.507,131.450 L 95.755,131.512 L 95.995,131.598 L 96.226,131.707 L 96.444,131.838 L 96.649,131.990 L 96.838,132.162 L 97.010,132.351 L 97.162,132.556 L 97.293,132.774 L 97.402,133.005 L 97.488,133.245 L 97.550,133.493 L 97.587,133.745 L 97.600,134.000 Z"/>
<path d="M 157.000,134.000 L 152.285,136.738 L 155.923,140.798 L 150.593,141.945 L 152.798,146.931 L 147.374,146.374 L 147.931,151.798 L 142.945,149.593 L 141.798,154.923 L 137.738,151.285 L 135.000,156.000 L 132.262,151.285 L 128.202,154.923 L 127.055,149.593 L 122.069,151.798 L 122.626,146.374 L 117.202,146.931 L 119.407,141.945 L 114.077,140.798 L 117.715,136.738 L 113.000,134.000 L 117.715,131.262 L 114.077,127.202 L 119.407,126.055 L 117.202,121.069 L 122.626,121.626 L 122.069,116.202 L 127.055,118.407 L 128.202,113.077 L 132.262,116.715 L 135.000,112.000 L 137.738,116.715 L 141.798,113.077 L 142.945,118.407 L 147.931,116.202 L 147.374,121.626 L 152.798,121.069 L 150.593,126.055 L 155.923,127.202 L 152.285,131.262 L 157.000,134.000 Z"/>
<path d="M 137.600,134.000 L 137.587,134.255 L 137.550,134.507 L 137.488,134.755 L 137.402,134.995 L 137.293,135.226 L 137.162,135.444 L 137.010,135.649 L 136.838,135.838 L 136.649,136.010 L 136.444,136.162 L 136.226,136.293 L 135.995,136.402 L 135.755,136.488 L 135.507,136.550 L 135.255,136.587 L 135.000,136.600 L 134.745,136.587 L 134.493,136.550 L 134.245,136.488 L 134.005,136.402 L 133.774,136.293 L 133.556,136.162 L 133.351,136.010 L 133.162,135.838 L 132.990,135.649 L 132.838,135.444 L 132.707,135.226 L 132.598,134.995 L 132.512,134.755 L 132.450,134.507 L 132.413,134.255 L 132.400,134.000 L 132.413,133.745 L 132.450,133.493 L 132.512,133.245 L 132.598,133.005 L 132.707,132.774 L 132.838,132.556 L 132.990,132.351 L 133.162,132.162 L 133.351,131.990 L 133.556,131.838 L 133.774,131.707 L 134.005,131.598 L 134.245,131.512 L 134.493,131.450 L 134.745,131.413 L 135.000,131.400 L 135.255,131.413 L 135.507,131.450 L 135.755,131.512 L 135.995,131.598 L 136.226,131.707 L 136.444,131.838 L 136.649,131.990 L 136.838,132.162 L 137.010,132.351 L 137.162,132.556 L 137.293,132.774 L 137.402,133.005 L 137.488,133.245 L 137.550,133.493 L 137.587,133.745 L 137.600,134.000 Z"/>
<path d="M 97.500,134.000 L 97.495,134.164 L 97.479,134.326 L 97.452,134.488 L 97.415,134.647 L 97.367,134.804 L 97.310,134.957 L 97.242,135.106 L 97.165,135.250 L 97.079,135.389 L 96.983,135.522 L 96.880,135.648 L 96.768,135.768 L 96.648,135.880 L 96.522,135.983 L 96.389,136.079 L 96.250,136.165 L 96.106,136.242 L 95.957,136.310 L 95.804,136.367 L 95.647,136.415 L 95.488,136.452 L 95.326,136.479 L 95.164,136.495 L 95.000,136.500 L 94.836,136.495 L 94.674,136.479 L 94.512,136.452 L 94.353,136.415 L 94.196,136.367 L 94.043,136.310 L 93.894,136.242 L 93.750,136.165 L 93.611,136.079 L 93.478,135.983 L 93.352,135.880 L 93.232,135.768 L 93.120,135.648 L 93.017,135.522 L 92.921,135.389 L 92.835,135.250 L 92.758,135.106 L 92.690,134.957 L 92.633,134.804 L 92.585,134.647 L 92.548,134.488 L 92.521,134.326 L 92.505,134.164 L 92.500,134.000 L 92.505,133.836 L 92.521,133.674 L 92.548,133.512 L 92.585,133.353 L 92.633,133.196 L 92.690,133.043 L 92.758,132.894 L 92.835,132.750 L 92.921,132.611 L 93.017,132.478 L 93.120,132.352 L 93.232,132.232 L 93.352,132.120 L 93.478,132.017 L 93.611,131.921 L 93.750,131.835 L 93.894,131.758 L 94.043,131.690 L 94.196,131.633 L 94.353,131.585 L 94.512,131.548 L 94.674,131.521 L 94.836,131.505 L 95.000,131.500 L 95.164,131.505 L 95.326,131.521 L 95.488,131.548 L 95.647,131.585 L 95.804,131.633 L 95.957,131.690 L 96.106,131.758 L 96.250,131.835 L 96.389,131.921 L 96.522,132.017 L 96.648,132.120 L 96.768,132.232 L 96.880,132.352 L 96.983,132.478 L 97.079,132.611 L 97.165,132.750 L 97.242,132.894 L 97.310,133.043 L 97.367,133.196 L 97.415,133.353 L 97.452,133.512 L 97.479,133.674 L 97.495,133.836 L 97.500,134.000 Z"/>
<path d="M 137.500,134.000 L 137.495,134.164 L 137.479,134.326 L 137.452,134.488 L 137.415,134.647 L 137.367,134.804 L 137.310,134.957 L 137.242,135.106 L 137.165,135.250 L 137.079,135.389 L 136.983,135.522 L 136.880,135.648 L 136.768,135.768 L 136.648,135.880 L 136.522,135.983 L 136.389,136.079 L 136.250,136.165 L 136.106,136.242 L 135.957,136.310 L 135.804,136.367 L 135.647,136.415 L 135.488,136.452 L 135.326,136.479 L 135.164,136.495 L 135.000,136.500 L 134.836,136.495 L 134.674,136.479 L 134.512,136.452 L 134.353,136.415 L 134.196,136.367 L 134.043,136.310 L 133.894,136.242 L 133.750,136.165 L 133.611,136.079 L 133.478,135.983 L 133.352,135.880 L 133.232,135.768 L 133.120,135.648 L 133.017,135.522 L 132.921,135.389 L 132.835,135.250 L 132.758,135.106 L 132.690,134.957 L 132.633,134.804 L 132.585,134.647 L 132.548,134.488 L 132.521,134.326 L 132.505,134.164 L 132.500,134.000 L 132.505,133.836 L 132.521,133.674 L 132.548,133.512 L 132.585,133.353 L 132.633,133.196 L 132.690,133.043 L 132.758,132.894 L 132.835,132.750 L 132.921,132.611 L 133.017,132.478 L 133.120,132.352 L 133.232,132.232 L 133.352,132.120 L 133.478,132.017 L 133.611,131.921 L 133.750,131.835 L 133.894,131.758 L 134.043,131.690 L 134.196,131.633 L 134.353,131.585 L 134.512,131.548 L 134.674,131.521 L 134.836,131.505 L 135.000,131.500 L 135.164,131.505 L 135.326,131.521 L 135.488,131.548 L 135.647,131.585 L 135.804,131.633 L 135.957,131.690 L 136.106,131.758 L 136.250,131.835 L 136.389,131.921 L 136.522,132.017 L 136.648,132.120 L 136.768,132.232 L 136.880,132.352 L 136.983,132.478 L 137.079,132.611 L 137.165,132.750 L 137.242,132.894 L 137.310,133.043 L 137.367,133.196 L 137.415,133.353 L 137.452,133.512 L 137.479,133.674 L 137.495,133.836 L 137.500,134.000 Z"/>
<path d="M 79.000,104.000 L 78.991,104.262 L 78.966,104.522 L 78.923,104.780 L 78.864,105.035 L 78.788,105.286 L 78.696,105.531 L 78.587,105.769 L 78.464,106.000 L 78.326,106.222 L 78.173,106.435 L 78.007,106.637 L 77.828,106.828 L 77.637,107.007 L 77.435,107.173 L 77.222,107.326 L 77.000,107.464 L 76.769,107.587 L 76.531,107.696 L 76.286,107.788 L 76.035,107.864 L 75.780,107.923 L 75.522,107.966 L 75.262,107.991 L 75.000,108.000 L 74.738,107.991 L 74.478,107.966 L 74.220,107.923 L 73.965,107.864 L 73.714,107.788 L 73.469,107.696 L 73.231,107.587 L 73.000,107.464 L 72.778,107.326 L 72.565,107.173 L 72.363,107.007 L 72.172,106.828 L 71.993,106.637 L 71.827,106.435 L 71.674,106.222 L 71.536,106.000 L 71.413,105.769 L 71.304,105.531 L 71.212,105.286 L 71.136,105.035 L 71.077,104.780 L 71.034,104.522 L 71.009,104.262 L 71.000,104.000 L 71.009,103.738 L 71.034,103.478 L 71.077,103.220 L 71.136,102.965 L 71.212,102.714 L 71.304,102.469 L 71.413,102.231 L 71.536,102.000 L 71.674,101.778 L 71.827,101.565 L 71.993,101.363 L 72.172,101.172 L 72.363,100.993 L 72.565,100.827 L 72.778,100.674 L 73.000,100.536 L 73.231,100.413 L 73.469,100.304 L 73.714,100.212 L 73.965,100.136 L 74.220,100.077 L 74.478,100.034 L 74.738,100.009 L 75.000,100.000 L 75.262,100.009 L 75.522,100.034 L 75.780,100.077 L 76.035,100.136 L 76.286,100.212 L 76.531,100.304 L 76.769,100.413 L 77.000,100.536 L 77.222,100.674 L 77.435,100.827 L 77.637,100.993 L 77.828,101.172 L 78.007,101.363 L 78.173,101.565 L 78.326,101.778 L 78.464,102.000 L 78.587,102.231 L 78.696,102.469 L 78.788,102.714 L 78.864,102.965 L 78.923,103.220 L 78.966,103.478 L 78.991,103.738 L 79.000,104.000 Z"/>
<path d="M 159.000,104.000 L 158.991,104.262 L 158.966,104.522 L 158.923,104.780 L 158.864,105.035 L 158.788,105.286 L 158.696,105.531 L 158.587,105.769 L 158.464,106.000 L 158.326,106.222 L 158.173,106.435 L 158.007,106.637 L 157.828,106.828 L 157.637,107.007 L 157.435,107.173 L 157.222,107.326 L 157.000,107.464 L 156.769,107.587 L 156.531,107.696 L 156.286,107.788 L 156.035,107.864 L 155.780,107.923 L 155.522,107.966 L 155.262,107.991 L 155.000,108.000 L 154.738,107.991 L 154.478,107.966 L 154.220,107.923 L 153.965,107.864 L 153.714,107.788 L 153.469,107.696 L 153.231,107.587 L 153.000,107.464 L 152.778,107.326 L 152.565,107.173 L 152.363,107.007 L 152.172,106.828 L 151.993,106.637 L 151.827,106.435 L 151.674,106.222 L 151.536,106.000 L 151.413,105.769 L 151.304,105.531 L 151.212,105.286 L 151.136,105.035 L 151.077,104.780 L 151.034,104.522 L 151.009,104.262 L 151.000,104.000 L 151.009,103.738 L 151.034,103.478 L 151.077,103.220 L 151.136,102.965 L 151.212,102.714 L 151.304,102.469 L 151.413,102.231 L 151.536,102.000 L 151.674,101.778 L 151.827,101.565 L 151.993,101.363 L 152.172,101.172 L 152.363,100.993 L 152.565,100.827 L 152.778,100.674 L 153.000,100.536 L 153.231,100.413 L 153.469,100.304 L 153.714,100.212 L 153.965,100.136 L 154.220,100.077 L 154.478,100.034 L 154.738,100.009 L 155.000,100.000 L 155.262,100.009 L 155.522,100.034 L 155.780,100.077 L 156.035,100.136 L 156.286,100.212 L 156.531,100.304 L 156.769,100.413 L 157.000,100.536 L 157.222,100.674 L 157.435,100.827 L 157.637,100.993 L 157.828,101.172 L 158.007,101.363 L 158.173,101.565 L 158.326,101.778 L 158.464,102.000 L 158.587,102.231 L 158.696,102.469 L 158.788,102.714 L 158.864,102.965 L 158.923,103.220 L 158.966,103.478 L 158.991,103.738 L 159.000,104.000 Z"/>
<path d="M 66.500,94.000 L 66.497,94.098 L 66.487,94.196 L 66.471,94.293 L 66.449,94.388 L 66.420,94.482 L 66.386,94.574 L 66.345,94.663 L 66.299,94.750 L 66.247,94.833 L 66.190,94.913 L 66.128,94.989 L 66.061,95.061 L 65.989,95.128 L 65.913,95.190 L 65.833,95.247 L 65.750,95.299 L 65.663,95.345 L 65.574,95.386 L 65.482,95.420 L 65.388,95.449 L 65.293,95.471 L 65.196,95.487 L 65.098,95.497 L 65.000,95.500 L 64.902,95.497 L 64.804,95.487 L 64.707,95.471 L 64.612,95.449 L 64.518,95.420 L 64.426,95.386 L 64.337,95.345 L 64.250,95.299 L 64.167,95.247 L 64.087,95.190 L 64.011,95.128 L 63.939,95.061 L 63.872,94.989 L 63.810,94.913 L 63.753,94.833 L 63.701,94.750 L 63.655,94.663 L 63.614,94.574 L 63.580,94.482 L 63.551,94.388 L 63.529,94.293 L 63.513,94.196 L 63.503,94.098 L 63.500,94.000 L 63.503,93.902 L 63.513,93.804 L 63.529,93.707 L 63.551,93.612 L 63.580,93.518 L 63.614,93.426 L 63.655,93.337 L 63.701,93.250 L 63.753,93.167 L 63.810,93.087 L 63.872,93.011 L 63.939,92.939 L 64.011,92.872 L 64.087,92.810 L 64.167,92.753 L 64.250,92.701 L 64.337,92.655 L 64.426,92.614 L 64.518,92.580 L 64.612,92.551 L 64.707,92.529 L 64.804,92.513 L 64.902,92.503 L 65.000,92.500 L 65.098,92.503 L 65.196,92.513 L 65.293,92.529 L 65.388,92.551 L 65.482,92.580 L 65.574,92.614 L 65.663,92.655 L 65.750,92.701 L 65.833,92.753 L 65.913,92.810 L 65.989,92.872 L 66.061,92.939 L 66.128,93.011 L 66.190,93.087 L 66.247,93.167 L 66.299,93.250 L 66.345,93.337 L 66.386,93.426 L 66.420,93.518 L 66.449,93.612 L 66.471,93.707 L 66.487,93.804 L 66.497,93.902 L 66.500,94.000 Z"/>
<path d="M 166.500,94.000 L 166.497,94.098 L 166.487,94.196 L 166.471,94.293 L 166.449,94.388 L 166.420,94.482 L 166.386,94.574 L 166.345,94.663 L 166.299,94.750 L 166.247,94.833 L 166.190,94.913 L 166.128,94.989 L 166.061,95.061 L 165.989,95.128 L 165.913,95.190 L 165.833,95.247 L 165.750,95.299 L 165.663,95.345 L 165.574,95.386 L 165.482,95.420 L 165.388,95.449 L 165.293,95.471 L 165.196,95.487 L 165.098,95.497 L 165.000,95.500 L 164.902,95.497 L 164.804,95.487 L 164.707,95.471 L 164.612,95.449 L 164.518,95.420 L 164.426,95.386 L 164.337,95.345 L 164.250,95.299 L 164.167,95.247 L 164.087,95.190 L 164.011,95.128 L 163.939,95.061 L 163.872,94.989 L 163.810,94.913 L 163.753,94.833 L 163.701,94.750 L 163.655,94.663 L 163.614,94.574 L 163.580,94.482 L 163.551,94.388 L 163.529,94.293 L 163.513,94.196 L 163.503,94.098 L 163.500,94.000 L 163.503,93.902 L 163.513,93.804 L 163.529,93.707 L 163.551,93.612 L 163.580,93.518 L 163.614,93.426 L 163.655,93.337 L 163.701,93.250 L 163.753,93.167 L 163.810,93.087 L 163.872,93.011 L 163.939,92.939 L 164.011,92.872 L 164.087,92.810 L 164.167,92.753 L 164.250,92.701 L 164.337,92.655 L 164.426,92.614 L 164.518,92.580 L 164.612,92.551 L 164.707,92.529 L 164.804,92.513 L 164.902,92.503 L 165.000,92.500 L 165.098,92.503 L 165.196,92.513 L 165.293,92.529 L 165.388,92.551 L 165.482,92.580 L 165.574,92.614 L 165.663,92.655 L 165.750,92.701 L 165.833,92.753 L 165.913,92.810 L 165.989,92.872 L 166.061,92.939 L 166.128,93.011 L 166.190,93.087 L 166.247,93.167 L 166.299,93.250 L 166.345,93.337 L 166.386,93.426 L 166.420,93.518 L 166.449,93.612 L 166.471,93.707 L 166.487,93.804 L 166.497,93.902 L 166.500,94.000 Z"/>
<path d="M 66.500,174.000 L 66.497,174.098 L 66.487,174.196 L 66.471,174.293 L 66.449,174.388 L 66.420,174.482 L 66.386,174.574 L 66.345,174.663 L 66.299,174.750 L 66.247,174.833 L 66.190,174.913 L 66.128,174.989 L 66.061,175.061 L 65.989,175.128 L 65.913,175.190 L 65.833,175.247 L 65.750,175.299 L 65.663,175.345 L 65.574,175.386 L 65.482,175.420 L 65.388,175.449 L 65.293,175.471 L 65.196,175.487 L 65.098,175.497 L 65.000,175.500 L 64.902,175.497 L 64.804,175.487 L 64.707,175.471 L 64.612,175.449 L 64.518,175.420 L 64.426,175.386 L 64.337,175.345 L 64.250,175.299 L 64.167,175.247 L 64.087,175.190 L 64.011,175.128 L 63.939,175.061 L 63.872,174.989 L 63.810,174.913 L 63.753,174.833 L 63.701,174.750 L 63.655,174.663 L 63.614,174.574 L 63.580,174.482 L 63.551,174.388 L 63.529,174.293 L 63.513,174.196 L 63.503,174.098 L 63.500,174.000 L 63.503,173.902 L 63.513,173.804 L 63.529,173.707 L 63.551,173.612 L 63.580,173.518 L 63.614,173.426 L 63.655,173.337 L 63.701,173.250 L 63.753,173.167 L 63.810,173.087 L 63.872,173.011 L 63.939,172.939 L 64.011,172.872 L 64.087,172.810 L 64.167,172.753 L 64.250,172.701 L 64.337,172.655 L 64.426,172.614 L 64.518,172.580 L 64.612,172.551 L 64.707,172.529 L 64.804,172.513 L 64.902,172.503 L 65.000,172.500 L 65.098,172.503 L 65.196,172.513 L 65.293,172.529 L 65.388,172.551 L 65.482,172.580 L 65.574,172.614 L 65.663,172.655 L 65.750,172.701 L 65.833,172.753 L 65.913,172.810 L 65.989,172.872 L 66.061,172.939 L 66.128,173.011 L 66.190,173.087 L 66.247,173.167 L 66.299,173.250 L 66.345,173.337 L 66.386,173.426 L 66.420,173.518 L 66.449,173.612 L 66.471,173.707 L 66.487,173.804 L 66.497,173.902 L 66.500,174.000 Z"/>
<path d="M 166.500,174.000 L 166.497,174.098 L 166.487,174.196 L 166.471,174.293 L 166.449,174.388 L 166.420,174.482 L 166.386,174.574 L 166.345,174.663 L 166.299,174.750 L 166.247,174.833 L 166.190,174.913 L 166.128,174.989 L 166.061,175.061 L 165.989,175.128 L 165.913,175.190 L 165.833,175.247 L 165.750,175.299 L 165.663,175.345 L 165.574,175.386 L 165.482,175.420 L 165.388,175.449 L 165.293,175.471 L 165.196,175.487 L 165.098,175.497 L 165.000,175.500 L 164.902,175.497 L 164.804,175.487 L 164.707,175.471 L 164.612,175.449 L 164.518,175.420 L 164.426,175.386 L 164.337,175.345 L 164.250,175.299 L 164.167,175.247 L 164.087,175.190 L 164.011,175.128 L 163.939,175.061 L 163.872,174.989 L 163.810,174.913 L 163.753,174.833 L 163.701,174.750 L 163.655,174.663 L 163.614,174.574 L 163.580,174.482 L 163.551,174.388 L 163.529,174.293 L 163.513,174.196 L 163.503,174.098 L 163.500,174.000 L 163.503,173.902 L 163.513,173.804 L 163.529,173.707 L 163.551,173.612 L 163.580,173.518 L 163.614,173.426 L 163.655,173.337 L 163.701,173.250 L 163.753,173.167 L 163.810,173.087 L 163.872,173.011 L 163.939,172.939 L 164.011,172.872 L 164.087,172.810 L 164.167,172.753 L 164.250,172.701 L 164.337,172.655 L 164.426,172.614 L 164.518,172.580 L 164.612,172.551 L 164.707,172.529 L 164.804,172.513 L 164.902,172.503 L 165.000,172.500 L 165.098,172.503 L 165.196,172.513 L 165.293,172.529 L 165.388,172.551 L 165.482,172.580 L 165.574,172.614 L 165.663,172.655 L 165.750,172.701 L 165.833,172.753 L 165.913,172.810 L 165.989,172.872 L 166.061,172.939 L 166.128,173.011 L 166.190,173.087 L 166.247,173.167 L 166.299,173.250 L 166.345,173.337 L 166.386,173.426 L 166.420,173.518 L 166.449,173.612 L 166.471,173.707 L 166.487,173.804 L 166.497,173.902 L 166.500,174.000 Z"/>
</g>
</g>
</svg>
